<svg width="61" height="60" viewBox="0 0 61 60" fill="none" xmlns="http://www.w3.org/2000/svg">
<rect x="0.625" width="60" height="60" rx="11" fill="#213735"/>
<g clip-path="url(#clip0_4067_148)">
<path d="M44.7929 24.6008L44.0083 25.3859C43.9082 25.4847 43.8031 25.5784 43.6934 25.6664C44.5966 27.6895 45.1039 29.9274 45.1039 32.2825C45.1039 41.2603 37.7995 48.5641 28.8213 48.5641C19.8425 48.5641 12.5382 41.2603 12.5382 32.2825C12.5382 23.3056 19.8426 16.0023 28.8213 16.0023C30.6914 16.0023 32.4867 16.3234 34.1611 16.9059V16.9053C34.3207 16.6519 34.5069 16.3995 34.7618 16.1427L35.1648 15.7392C33.1404 14.9618 30.9902 14.5638 28.8217 14.5649C19.0366 14.5656 11.1016 22.4982 11.1016 32.2819C11.1016 42.0672 19.0366 49.9998 28.8214 49.9998C38.6075 49.9998 46.5407 42.0671 46.5407 32.2819C46.5406 29.5305 45.9133 26.9244 44.7929 24.6008Z" fill="white"/>
<path d="M39.681 26.7648H38.0705C38.8898 28.2629 39.3562 29.9797 39.3562 31.8036C39.3562 37.6127 34.6299 42.3386 28.8207 42.3386C23.0112 42.3386 18.2848 37.6126 18.2848 31.8036C18.2848 25.9954 23.0111 21.2696 28.8207 21.2696C30.4537 21.2696 32.0018 21.643 33.3827 22.3095V20.7357C31.9764 20.1555 30.436 19.833 28.8207 19.833C22.2081 19.833 16.8477 25.1929 16.8477 31.8037C16.8477 38.4145 22.208 43.7754 28.8207 43.7754C35.432 43.7754 40.7933 38.4145 40.7933 31.8037C40.7934 30.003 40.3928 28.2968 39.681 26.7648Z" fill="white"/>
<path d="M50.0366 15.9214C49.9246 15.7041 49.7436 15.5523 49.5646 15.4607C49.384 15.3683 49.1996 15.3249 49.011 15.3055L45.5913 14.9644C45.5217 14.9591 45.4121 14.911 45.3264 14.8234C45.2388 14.7377 45.1907 14.6281 45.1859 14.5586L44.8434 11.1375C44.8167 10.8874 44.7505 10.6388 44.5762 10.4073C44.4831 10.2844 44.364 10.1835 44.2274 10.112C44.0842 10.0384 43.9255 10.0001 43.7645 10C43.5649 10.0005 43.3877 10.0566 43.2386 10.1334C43.0895 10.2115 42.9628 10.3115 42.8485 10.4253L35.9462 17.3276C35.6656 17.612 35.466 17.954 35.3126 18.3198C35.1631 18.687 35.0616 19.0706 35.0587 19.4702V23.412C35.0596 23.682 35.1292 23.9336 35.2431 24.1594L32.2731 27.218C31.3108 26.493 30.1186 26.0571 28.8209 26.0571C25.6465 26.0571 23.0742 28.6303 23.0742 31.8033C23.0742 34.9763 25.6465 37.5495 28.8209 37.5495C31.9939 37.5495 34.5677 34.9763 34.5677 31.8033C34.5677 30.4457 34.0938 29.2 33.3059 28.2164L36.3821 25.0492C36.4983 25.0743 36.6167 25.0874 36.7356 25.0882H40.6797C41.0793 25.0854 41.4628 24.9844 41.8296 24.8348C42.1959 24.6809 42.5378 24.4813 42.8227 24.2008L49.7236 17.3004C49.8374 17.186 49.9369 17.0594 50.0151 16.9099C50.0918 16.7607 50.1485 16.5836 50.1485 16.3845C50.1493 16.2233 50.1109 16.0644 50.0366 15.9214ZM28.8209 36.1135C26.444 36.1135 24.5104 34.1804 24.5104 31.8039C24.5104 29.4278 26.4439 27.4942 28.8209 27.4942C29.7275 27.4942 30.5687 27.7772 31.2636 28.2573L28.3055 31.304C28.0291 31.5884 28.0359 32.0433 28.3203 32.3196C28.6047 32.5959 29.0601 32.5892 29.3364 32.3047L32.2927 29.2608C32.817 29.9745 33.1309 30.8519 33.1309 31.8037C33.1309 34.1804 31.1974 36.1135 28.8209 36.1135ZM36.4963 22.8705V19.4708C36.4935 19.3441 36.5454 19.0959 36.6412 18.8701C36.7322 18.6434 36.8713 18.4313 36.9632 18.3437L43.4711 11.8363L43.7574 14.7025C43.7774 14.8954 43.8327 15.0741 43.906 15.2413L36.4963 22.8705ZM41.8071 23.1858C41.7185 23.2773 41.5074 23.4159 41.2807 23.5078C41.0549 23.6036 40.8068 23.6555 40.68 23.6527H37.739L44.9267 16.2512C45.0896 16.3208 45.2615 16.3736 45.4487 16.3936L48.3135 16.6794L41.8071 23.1858Z" fill="white"/>
</g>
<defs>
<clipPath id="clip0_4067_148">
<rect width="40" height="40" fill="white" transform="translate(10.625 10)"/>
</clipPath>
</defs>
</svg>
