<svg width="61" height="60" viewBox="0 0 61 60" fill="none" xmlns="http://www.w3.org/2000/svg">
<rect x="0.375" width="60" height="60" rx="11" fill="#213735"/>
<g clip-path="url(#clip0_4067_133)">
<path d="M26.4504 26.1358C26.3053 25.9774 26.1294 25.8503 25.9335 25.7621C25.7377 25.6739 25.5259 25.6265 25.3111 25.6228C24.4415 25.6117 23.7221 26.305 23.7073 27.1739C23.7062 27.2405 23.7182 27.3067 23.7427 27.3686C23.7671 27.4306 23.8035 27.4871 23.8498 27.535C23.8961 27.5829 23.9514 27.6212 24.0125 27.6477C24.0736 27.6743 24.1393 27.6885 24.2059 27.6896L24.2147 27.6897C24.3477 27.6896 24.4754 27.6373 24.5702 27.5441C24.665 27.4508 24.7194 27.324 24.7216 27.191C24.7228 27.1169 24.7386 27.0439 24.7681 26.9759C24.7976 26.908 24.8402 26.8465 24.8935 26.795C24.9468 26.7436 25.0097 26.7032 25.0786 26.676C25.1476 26.6489 25.2212 26.6357 25.2952 26.6371C25.3719 26.638 25.4475 26.6546 25.5174 26.6861C25.5873 26.7176 25.65 26.7631 25.7015 26.8199C25.7464 26.8691 25.8006 26.909 25.8609 26.9372C25.9212 26.9655 25.9865 26.9815 26.053 26.9845C26.1196 26.9876 26.1861 26.9774 26.2487 26.9547C26.3113 26.9321 26.3689 26.8973 26.418 26.8523C26.4672 26.8074 26.5071 26.7532 26.5353 26.6929C26.5635 26.6326 26.5796 26.5673 26.5826 26.5008C26.5856 26.4342 26.5755 26.3677 26.5528 26.3051C26.5301 26.2425 26.4953 26.1849 26.4504 26.1358ZM29.1489 27.7888C29.0714 27.6074 28.9578 27.4437 28.815 27.3076C28.6722 27.1716 28.5032 27.066 28.3183 26.9974C27.5694 26.7211 26.7346 27.1051 26.4571 27.8531C26.4116 27.9789 26.4177 28.1176 26.4739 28.239C26.5302 28.3604 26.6322 28.4546 26.7577 28.5011C26.8831 28.5477 27.0219 28.5428 27.1437 28.4875C27.2655 28.4322 27.3606 28.3309 27.4082 28.2059C27.4915 27.9812 27.7426 27.8663 27.9671 27.9491C28.0225 27.9693 28.0732 28.0008 28.1159 28.0415C28.1586 28.0822 28.1924 28.1313 28.2153 28.1857C28.2679 28.3095 28.3676 28.4073 28.4923 28.4577C28.6171 28.508 28.7568 28.5067 28.8806 28.454C29.0044 28.4014 29.1022 28.3017 29.1525 28.177C29.2028 28.0522 29.2015 27.9126 29.1489 27.7888ZM32.4179 23.2967C32.3707 23.2496 32.3148 23.2123 32.2532 23.1869C32.1917 23.1614 32.1257 23.1484 32.0591 23.1484C31.9925 23.1485 31.9265 23.1617 31.865 23.1873C31.8035 23.2128 31.7477 23.2502 31.7006 23.2974L31.2225 23.7765C31.1746 23.8234 31.1365 23.8794 31.1105 23.9412C31.0844 24.003 31.0708 24.0693 31.0705 24.1364C31.0702 24.2034 31.0832 24.2699 31.1088 24.3319C31.1344 24.3939 31.172 24.4502 31.2194 24.4975C31.2669 24.5449 31.3233 24.5824 31.3853 24.6078C31.4474 24.6333 31.5139 24.6461 31.5809 24.6457C31.648 24.6453 31.7143 24.6316 31.776 24.6054C31.8377 24.5791 31.8936 24.5409 31.9405 24.493L32.4186 24.0139C32.5136 23.9187 32.5669 23.7896 32.5668 23.6551C32.5666 23.5206 32.5131 23.3917 32.4179 23.2967ZM29.2623 29.8445H28.5863C28.4518 29.8445 28.3228 29.898 28.2277 29.9931C28.1326 30.0882 28.0791 30.2172 28.0791 30.3517C28.0791 30.4863 28.1326 30.6153 28.2277 30.7104C28.3228 30.8055 28.4518 30.8589 28.5863 30.8589H29.2623C29.3969 30.8589 29.5259 30.8055 29.621 30.7104C29.7161 30.6153 29.7695 30.4863 29.7695 30.3517C29.7695 30.2172 29.7161 30.0882 29.621 29.9931C29.5259 29.898 29.3969 29.8445 29.2623 29.8445ZM34.4455 29.8445H33.7695C33.6349 29.8445 33.5059 29.898 33.4108 29.9931C33.3157 30.0882 33.2623 30.2172 33.2623 30.3517C33.2623 30.4863 33.3157 30.6153 33.4108 30.7104C33.5059 30.8055 33.6349 30.8589 33.7695 30.8589H34.4455C34.58 30.8589 34.709 30.8055 34.8042 30.7104C34.8993 30.6153 34.9527 30.4863 34.9527 30.3517C34.9527 30.2172 34.8993 30.0882 34.8042 29.9931C34.709 29.898 34.58 29.8445 34.4455 29.8445Z" fill="white"/>
<path d="M47.6712 38.9903L47.5391 38.2773C47.4549 37.8218 47.0571 37.4912 46.5933 37.4912C46.5351 37.4912 46.4764 37.4965 46.4186 37.5071L43.7298 38.0011L44.9475 37.1871C45.1036 37.0828 45.2258 36.935 45.2988 36.762C45.3718 36.589 45.3925 36.3983 45.3583 36.2137C45.3388 36.1097 45.3023 36.0096 45.2502 35.9174L44.8817 35.2649C44.8186 35.1534 44.7339 35.0557 44.6326 34.9772C44.5313 34.8988 44.4154 34.8413 44.2916 34.8082C44.17 34.7761 44.0432 34.7681 43.9185 34.7846C44.0554 34.0287 44.1242 33.2621 44.124 32.4939C44.124 32.1487 43.9164 31.8516 43.6198 31.7196C44.0073 30.798 44.0338 29.7429 43.6507 28.7767C43.6199 28.6985 43.5733 28.6275 43.5139 28.5682C43.4548 28.509 43.3843 28.4625 43.3066 28.4316C42.7918 28.2258 42.2386 28.1334 41.6848 28.1607C41.6145 26.7451 40.4429 25.615 39.0126 25.615C38.8242 25.615 38.6405 25.635 38.4632 25.6723C38.5894 24.9206 38.5076 24.1487 38.2267 23.44C38.1954 23.3595 38.1477 23.2863 38.0866 23.2251C38.0267 23.1649 37.955 23.1177 37.8761 23.0864C37.3848 22.8901 36.8606 22.7894 36.3316 22.7897C35.5325 22.7897 34.7681 23.0143 34.1082 23.432C33.8602 22.7127 33.4518 22.0593 32.914 21.5212C32.8343 21.4408 32.7393 21.3771 32.6347 21.3337C32.5301 21.2903 32.4179 21.2681 32.3047 21.2684C32.1914 21.2681 32.0791 21.2903 31.9745 21.3337C31.8699 21.3772 31.7749 21.4409 31.6951 21.5213L29.2393 23.9827C28.7712 23.5647 28.1654 23.3341 27.5378 23.335C27.3905 23.335 27.2418 23.3479 27.0958 23.3734C26.5667 23.4655 26.0799 23.7244 25.7067 24.1037C25.2281 23.8727 24.6798 23.7939 24.1529 23.8856C24.0387 23.9057 23.9259 23.9335 23.8154 23.9688V22.0722C23.8154 20.766 22.7656 19.7015 21.4671 19.6791V18.6034C21.8646 18.5346 22.1681 18.1882 22.1681 17.7713V15.3341C22.1681 14.868 21.7889 14.4888 21.3228 14.4888H17.1981C16.732 14.4888 16.3528 14.868 16.3528 15.3341V17.7713C16.3528 18.1882 16.6563 18.5346 17.0538 18.6034V19.6789C15.7553 19.7013 14.7056 20.7658 14.7056 22.072V36.8752C13.6929 37.7897 13.0625 39.0658 13.0625 40.4769C13.0625 43.2527 15.4988 45.511 18.4934 45.511L38.794 45.5051C39.487 45.5048 40.1386 45.2003 40.5818 44.6697C40.7944 44.416 40.9499 44.1196 41.0378 43.8006C41.1257 43.4815 41.144 43.1473 41.0913 42.8206L45.146 43.5492C45.2021 43.5593 45.2596 43.5645 45.3166 43.5645C45.5188 43.5645 45.7126 43.5024 45.8767 43.3851C45.9814 43.31 46.07 43.2147 46.1372 43.1049C46.2045 42.995 46.2491 42.8728 46.2684 42.7454L46.3782 42.0084C46.3941 41.9035 46.3923 41.7967 46.373 41.6923C46.3388 41.5079 46.2514 41.3375 46.1215 41.2022C45.9916 41.0669 45.8249 40.9725 45.642 40.9308L44.2128 40.6029L46.899 40.1095C47.0236 40.087 47.1424 40.04 47.2487 39.9713C47.3549 39.9025 47.4464 39.8134 47.518 39.709C47.5898 39.6053 47.6404 39.4884 47.6667 39.365C47.693 39.2416 47.6945 39.1142 47.6712 38.9903ZM41.8729 29.1704C42.1782 29.1704 42.4784 29.2187 42.767 29.314C43.025 30.0994 42.9284 30.9466 42.5245 31.6464H41.1582L41.5942 31.2094C41.6412 31.1622 41.6785 31.1063 41.704 31.0447C41.7294 30.9831 41.7424 30.9172 41.7423 30.8506C41.7422 30.784 41.729 30.718 41.7035 30.6565C41.6779 30.595 41.6405 30.5391 41.5933 30.4921C41.5462 30.445 41.4902 30.4077 41.4287 30.3823C41.3671 30.3569 41.3011 30.3438 41.2345 30.3439C41.1679 30.344 41.102 30.3572 41.0405 30.3827C40.979 30.4083 40.9231 30.4457 40.8761 30.4929L40.6454 30.7241C40.539 30.3738 40.3524 30.0532 40.1003 29.7878C40.6037 29.388 41.2216 29.1704 41.8729 29.1704ZM39.0126 26.6292C39.9286 26.6292 40.6737 27.3767 40.6737 28.2954C40.6737 28.3124 40.6729 28.3292 40.6724 28.3462C40.1378 28.52 39.645 28.8105 39.2247 29.2049C39.1577 29.1791 39.0895 29.1563 39.0203 29.1368C38.9498 28.7525 38.7847 28.3919 38.5399 28.0874C38.2951 27.783 37.9784 27.5442 37.6183 27.3928C37.9144 26.934 38.4283 26.6292 39.0126 26.6292ZM36.3315 23.8039C36.676 23.8039 37.0145 23.8597 37.3408 23.9699C37.5992 24.7381 37.5543 25.5761 37.2153 26.3123C36.9385 26.5642 36.7172 26.871 36.5655 27.2131C36.4748 27.2183 36.3845 27.2286 36.295 27.244C35.8975 27.3132 35.5269 27.4856 35.2168 27.7357C35.1112 27.5431 34.9823 27.3643 34.8332 27.2031L35.9963 26.0374C36.0433 25.9902 36.0806 25.9343 36.106 25.8727C36.1315 25.8111 36.1445 25.7452 36.1444 25.6786C36.1443 25.612 36.1311 25.546 36.1056 25.4845C36.08 25.423 36.0425 25.3672 35.9954 25.3201C35.9482 25.2731 35.8923 25.2358 35.8307 25.2104C35.7691 25.1849 35.7032 25.1719 35.6366 25.172C35.5699 25.172 35.504 25.1852 35.4425 25.2108C35.381 25.2364 35.3251 25.2738 35.2781 25.3209L34.0068 26.5951C33.7609 26.4786 33.4984 26.4006 33.2287 26.364C33.3493 25.7464 33.651 25.1786 34.0954 24.7331C34.6932 24.1339 35.4873 23.8039 36.3315 23.8039ZM32.445 31.6464H32.0053C31.9313 31.458 31.7482 31.3244 31.5335 31.3244C31.3188 31.3244 31.1357 31.4581 31.0617 31.6464H30.5445C30.6646 31.4508 30.6403 31.1917 30.4708 31.0225C30.4236 30.9754 30.3677 30.9381 30.3061 30.9127C30.2445 30.8873 30.1786 30.8742 30.1119 30.8743C30.0453 30.8744 29.9794 30.8875 29.9179 30.9131C29.8564 30.9387 29.8005 30.9761 29.7534 31.0232L29.2754 31.5023C29.2338 31.5441 29.1999 31.5929 29.1752 31.6464H28.1428C27.7562 31.0531 27.5203 30.3528 27.4923 29.5995H35.539C35.511 30.3528 35.2751 31.0531 34.8885 31.6464H33.8142C33.7895 31.5929 33.7556 31.5441 33.714 31.5022L33.236 31.0232C33.141 30.9279 33.0121 30.8744 32.8776 30.8742C32.7431 30.8741 32.614 30.9273 32.5188 31.0223C32.3491 31.1915 32.3248 31.4508 32.445 31.6464ZM31.2654 28.5851C31.4566 27.8766 32.1029 27.3537 32.8688 27.3537C33.6348 27.3537 34.2811 27.8766 34.4723 28.5851H31.2654ZM32.3026 22.3485C32.7702 22.8535 33.1001 23.4703 33.2604 24.1396C33.0052 24.4169 32.7886 24.7275 32.6167 25.0629C32.5372 25.0139 32.4458 24.988 32.3525 24.988H31.6766C31.5421 24.988 31.4131 25.0415 31.318 25.1366C31.2228 25.2317 31.1694 25.3607 31.1694 25.4952C31.1694 25.6297 31.2228 25.7587 31.318 25.8539C31.4131 25.949 31.5421 26.0024 31.6766 26.0024H32.2695C32.2362 26.1425 32.2102 26.2843 32.1915 26.427C31.9921 26.4792 31.7996 26.5544 31.6177 26.6512C31.2796 26.0677 30.7198 25.633 30.0565 25.4586C30.0179 25.2324 29.9491 25.0125 29.852 24.8046L32.3026 22.3485ZM23.1339 26.9252C23.1043 26.8425 23.0818 26.7575 23.0668 26.671C22.9213 25.8324 23.4867 25.0312 24.3268 24.8849C24.4151 24.8695 24.5046 24.8617 24.5943 24.8616C24.9284 24.8616 25.2477 24.9682 25.5176 25.1698C25.5729 25.2111 25.6361 25.2407 25.7032 25.2567C25.7703 25.2728 25.84 25.2749 25.9079 25.2631C25.9759 25.2513 26.0408 25.2258 26.0986 25.1881C26.1563 25.1504 26.2058 25.1012 26.244 25.0437C26.4821 24.6846 26.8464 24.4463 27.2697 24.3725C27.3582 24.3571 27.4479 24.3493 27.5378 24.3493C27.9011 24.3487 28.2529 24.4768 28.5308 24.7108C28.8088 24.9448 28.9949 25.2697 29.0563 25.6278C29.071 25.7126 29.0786 25.8011 29.0787 25.8907C29.079 26.0174 29.1266 26.1394 29.2122 26.2327C29.2979 26.3261 29.4154 26.384 29.5416 26.3951C30.1086 26.4449 30.5913 26.8018 30.8151 27.3045C30.5088 27.6713 30.3064 28.1135 30.229 28.5851H27.3365C26.9768 28.5851 26.6682 28.8071 26.5396 29.1213C25.9032 28.6879 25.1532 28.4544 24.3672 28.4544C23.876 28.4541 23.3893 28.5477 22.9332 28.7299C22.8556 28.7608 22.7852 28.8072 22.7262 28.8663C22.6668 28.9255 22.6202 28.9964 22.5895 29.0744C22.4748 29.3644 22.3953 29.667 22.3529 29.976C22.1657 29.763 22.0411 29.5024 21.993 29.2229C21.8737 28.5348 22.234 27.8496 22.8688 27.5566C22.9839 27.5035 23.0749 27.4093 23.124 27.2924C23.173 27.1755 23.1766 27.0445 23.1339 26.9252ZM24.6459 31.5077L24.7842 31.6464H23.5661C23.2926 31.0119 23.2511 30.2897 23.4731 29.6124C23.7616 29.517 24.0634 29.4685 24.3672 29.4687C25.1315 29.4687 25.8504 29.7674 26.3915 30.3097C26.4628 30.3814 26.5302 30.4568 26.5934 30.5356C26.6788 30.9198 26.8091 31.2926 26.9816 31.6463H26.2172L25.364 30.7911C25.1661 30.5929 24.8449 30.5924 24.6467 30.7903C24.5996 30.8374 24.5621 30.8932 24.5366 30.9547C24.511 31.0163 24.4978 31.0822 24.4977 31.1488C24.4976 31.2154 24.5107 31.2814 24.5361 31.343C24.5615 31.4046 24.5988 31.4605 24.6459 31.5077ZM22.4859 31.6464H20.6777C20.7583 31.1551 21.0539 30.7363 21.4641 30.4893C21.707 30.8149 22.0241 31.0777 22.3891 31.2559C22.4147 31.3877 22.447 31.518 22.4859 31.6464ZM17.3672 15.5032H21.1537V17.6022H17.3672V15.5032ZM20.4527 18.6166V19.6779H18.0683V18.6166H20.4527ZM15.72 24.129H19.0136C19.1482 24.129 19.2772 24.0755 19.3723 23.9804C19.4674 23.8853 19.5208 23.7563 19.5208 23.6218C19.5208 23.4872 19.4674 23.3582 19.3723 23.2631C19.2772 23.168 19.1482 23.1146 19.0136 23.1146H15.72V22.072C15.72 21.3112 16.3371 20.6923 17.0955 20.6923H21.4255C22.184 20.6923 22.801 21.3112 22.801 22.072V23.1146H21.854C21.7195 23.1146 21.5904 23.168 21.4953 23.2631C21.4002 23.3582 21.3468 23.4872 21.3468 23.6218C21.3468 23.7563 21.4002 23.8853 21.4953 23.9804C21.5904 24.0755 21.7195 24.129 21.854 24.129H22.801V24.5791C22.2199 25.1489 21.9181 25.9844 22.0671 26.8439L22.068 26.8491C21.2543 27.4074 20.8208 28.3998 20.9934 29.3962C21.0035 29.4544 21.0161 29.5116 21.0299 29.5682C20.7776 29.7079 20.5493 29.8872 20.3539 30.0994H15.72V24.129ZM15.72 31.1138H19.765C19.7101 31.2871 19.6731 31.4656 19.6546 31.6464H19.5691C19.1023 31.6464 18.7224 32.0265 18.7224 32.4938C18.7224 33.2991 18.7973 34.0898 18.9424 34.8633C18.7936 34.8513 18.6444 34.8453 18.4952 34.8453C17.8818 34.8453 17.2974 34.9426 16.8497 35.1194C16.165 35.3897 15.9757 35.7737 15.9344 36.0393C15.8621 36.0755 15.7906 36.1133 15.72 36.1526V31.1138ZM22.1425 37.3446C22.3252 37.4907 22.4368 37.6149 22.5016 37.7045L22.4827 37.7047C22.1956 37.7047 21.6798 37.589 21.0933 37.2643C20.8749 37.1433 20.6737 37.0066 20.5114 36.8691C20.4198 36.7915 20.3036 36.7489 20.1835 36.7489C20.0635 36.749 19.9473 36.7916 19.8557 36.8692C19.6934 37.0068 19.4922 37.1434 19.2741 37.2642C18.6874 37.589 18.1716 37.7047 17.8846 37.7047L17.8656 37.7045C17.9303 37.6149 18.0419 37.4906 18.2246 37.3444C18.3027 37.2819 18.3606 37.1977 18.391 37.1024C18.4213 37.007 18.4228 36.9049 18.3952 36.8087C18.3677 36.7125 18.3123 36.6267 18.236 36.5619C18.1598 36.4971 18.0661 36.4564 17.9667 36.4447C17.4718 36.3867 17.1588 36.2607 17.0122 36.169C17.1958 36.0546 17.66 35.8597 18.4954 35.8597C19.1872 35.8597 19.6928 36.0051 19.9353 36.1413C20.0112 36.1839 20.0967 36.2063 20.1836 36.2063C20.2706 36.2063 20.3561 36.184 20.4319 36.1414C20.6746 36.0052 21.1803 35.8597 21.8721 35.8597C22.7075 35.8597 23.1716 36.0548 23.3551 36.1691C23.2087 36.2608 22.8956 36.3868 22.4005 36.4448C22.3011 36.4564 22.2074 36.4972 22.1312 36.562C22.0549 36.6268 21.9995 36.7127 21.972 36.8089C21.9443 36.905 21.9458 37.0072 21.9761 37.1026C22.0065 37.1979 22.0644 37.2821 22.1425 37.3446ZM21.1279 43.5179L21.1454 43.6119C21.204 43.9291 21.3284 44.2305 21.5106 44.4966H18.4934C16.0582 44.4966 14.0769 42.6934 14.0769 40.4769C14.0769 38.9621 15.0026 37.641 16.3657 36.9559C16.5222 37.0728 16.7174 37.1735 16.9489 37.2548C16.8571 37.4116 16.7931 37.5803 16.778 37.7562C16.758 37.9901 16.8296 38.2121 16.9797 38.3816C17.1781 38.6056 17.4825 38.7191 17.8846 38.7191C18.4205 38.7191 19.1236 38.507 19.7654 38.1517C19.909 38.0725 20.0486 37.9863 20.1837 37.8934C20.3188 37.9862 20.4584 38.0725 20.6019 38.1518C21.2437 38.507 21.9468 38.7191 22.4827 38.7191H22.4828C22.8847 38.7191 23.1892 38.6056 23.3875 38.3817C23.5377 38.2122 23.6093 37.9901 23.5892 37.7562C23.5741 37.5803 23.5101 37.4116 23.4183 37.2548C23.6499 37.1735 23.8451 37.0727 24.0017 36.9559C25.0827 37.4992 25.8882 38.4427 26.1754 39.5655L22.5881 40.9282C21.5381 41.3272 20.924 42.4163 21.1279 43.5179ZM39.8033 44.0193C39.6799 44.1672 39.5255 44.286 39.351 44.3675C39.1764 44.4489 38.9862 44.491 38.7936 44.4907L38.2612 44.4909L37.9286 42.695C37.9165 42.6295 37.8916 42.5671 37.8554 42.5112C37.8191 42.4553 37.7722 42.4071 37.7173 42.3694C37.6624 42.3316 37.6006 42.3051 37.5354 42.2912C37.4703 42.2774 37.403 42.2765 37.3375 42.2887C37.2052 42.3132 37.0881 42.3892 37.0119 42.5C36.9357 42.6109 36.9066 42.7475 36.9311 42.8797L37.2296 44.4912L35.4845 44.4919L35.2596 43.2775C35.2475 43.212 35.2226 43.1496 35.1863 43.0937C35.15 43.0378 35.1031 42.9896 35.0482 42.9519C34.9933 42.9142 34.9316 42.8876 34.8664 42.8737C34.8013 42.8599 34.734 42.859 34.6685 42.8711C34.603 42.8832 34.5406 42.9082 34.4847 42.9444C34.4288 42.9807 34.3806 43.0276 34.3429 43.0825C34.3052 43.1374 34.2786 43.1992 34.2647 43.2643C34.2509 43.3295 34.25 43.3967 34.2621 43.4622L34.4528 44.4923L30.3935 44.4939L30.088 42.8446C30.0635 42.7123 29.9874 42.5952 29.8766 42.519C29.7657 42.4428 29.6291 42.4137 29.4968 42.4382C29.3646 42.4627 29.2474 42.5388 29.1712 42.6497C29.095 42.7605 29.066 42.8971 29.0905 43.0294L29.3619 44.4943L23.4348 44.4966H23.4344C22.8006 44.4966 22.2574 44.0468 22.1426 43.427L22.1252 43.333C22.0105 42.7138 22.3566 42.1013 22.9482 41.8765L24.9416 41.1192L25.0901 41.9207C25.1147 42.053 25.1907 42.1701 25.3016 42.2463C25.4124 42.3224 25.549 42.3515 25.6812 42.327C25.8135 42.3025 25.9306 42.2264 26.0068 42.1156C26.083 42.0047 26.112 41.8682 26.0875 41.7359L25.9053 40.7531L28.8644 39.629C28.9901 39.5812 29.0917 39.4855 29.1469 39.3628C29.202 39.2401 29.2062 39.1005 29.1584 38.9747C29.1107 38.849 29.0149 38.7473 28.8922 38.6922C28.7695 38.637 28.6299 38.6329 28.5042 38.6807L27.1272 39.2038C26.7409 37.8361 25.7486 36.6937 24.4326 36.0392C24.3913 35.7736 24.202 35.3897 23.5174 35.1193C23.0698 34.9425 22.4853 34.8452 21.872 34.8452C21.4498 34.8452 21.0467 34.8918 20.6909 34.9767V34.6703C20.6909 34.5358 20.6374 34.4068 20.5423 34.3117C20.4472 34.2166 20.3182 34.1631 20.1837 34.1631C20.0699 34.1631 19.9595 34.2014 19.8703 34.272C19.7896 33.7385 19.7454 33.2002 19.7381 32.6607H36.2585C36.393 32.6607 36.522 32.6072 36.6171 32.5121C36.7122 32.417 36.7657 32.288 36.7657 32.1535C36.7657 32.019 36.7122 31.8899 36.6171 31.7948C36.522 31.6997 36.393 31.6463 36.2585 31.6463H36.0509C36.3841 30.9611 36.5569 30.209 36.5563 29.4471C36.5563 28.9996 36.214 28.631 35.7776 28.5891C35.969 28.4082 36.2095 28.2879 36.469 28.2432C36.5464 28.2297 36.625 28.2229 36.7026 28.2229C37.0192 28.2224 37.3257 28.3339 37.5678 28.5378C37.81 28.7416 37.9722 29.0246 38.0257 29.3366C38.0386 29.4113 38.0452 29.4884 38.0453 29.5659C38.0454 29.6926 38.093 29.8147 38.1787 29.9081C38.2644 30.0015 38.3819 30.0594 38.5081 30.0705C39.1143 30.1237 39.6102 30.5796 39.7141 31.179C39.7406 31.3338 39.7394 31.492 39.7106 31.6463H39.1664C39.0319 31.6463 38.9029 31.6997 38.8078 31.7948C38.7126 31.8899 38.6592 32.019 38.6592 32.1535C38.6592 32.288 38.7126 32.417 38.8078 32.5121C38.9029 32.6072 39.0319 32.6607 39.1664 32.6607H43.1085C43.0959 33.5911 42.9761 34.4999 42.7526 35.3817L40.0038 37.0043C39.8351 36.4165 39.4406 35.9194 38.9066 35.6216C38.6091 35.4547 38.2786 35.3552 37.9384 35.3302C37.5982 35.3051 37.2567 35.3551 36.938 35.4766L31.2769 37.6273C31.1511 37.6751 31.0495 37.7708 30.9943 37.8935C30.9392 38.0162 30.935 38.1558 30.9828 38.2816C31.0306 38.4073 31.1263 38.509 31.249 38.5641C31.3717 38.6193 31.5113 38.6234 31.637 38.5756L32.3828 38.2923L32.6144 39.5426C32.6389 39.6748 32.715 39.7919 32.8258 39.8681C32.9367 39.9443 33.0732 39.9734 33.2055 39.9489C33.3378 39.9244 33.4549 39.8484 33.5311 39.7376C33.6073 39.6267 33.6364 39.4901 33.6119 39.3579L33.3467 37.9262L37.2981 36.4251C37.4783 36.3564 37.6714 36.3281 37.8637 36.3422C38.0561 36.3564 38.2429 36.4126 38.4111 36.5069C38.5788 36.6003 38.7238 36.7295 38.8357 36.8853C38.9477 37.0411 39.0238 37.2198 39.0587 37.4085L40.0848 42.9481C40.1199 43.1364 40.1128 43.3301 40.0641 43.5153C40.0155 43.7005 39.9264 43.8726 39.8033 44.0193ZM41.613 40.0492C41.4982 40.0703 41.3942 40.1304 41.3186 40.2192C41.2429 40.3081 41.2002 40.4203 41.1977 40.5369C41.1951 40.6536 41.2329 40.7676 41.3045 40.8597C41.3762 40.9517 41.4775 41.0163 41.5912 41.0424L45.3675 41.9086L45.2732 42.5415L40.8954 41.7548L40.2111 38.0601L44.0242 35.8092L44.3418 36.3716L41.1256 38.5215C41.0286 38.5864 40.9569 38.6827 40.9226 38.7943C40.8883 38.9058 40.8936 39.0258 40.9375 39.134C40.9813 39.2421 41.0612 39.3318 41.1635 39.3879C41.2658 39.4441 41.3844 39.4632 41.4992 39.4421L46.5513 38.514L46.6638 39.1213L41.613 40.0492Z" fill="white"/>
</g>
<defs>
<clipPath id="clip0_4067_133">
<rect width="34.625" height="34.625" fill="white" transform="translate(13.0625 12.6875)"/>
</clipPath>
</defs>
</svg>
