<svg width="61" height="60" viewBox="0 0 61 60" fill="none" xmlns="http://www.w3.org/2000/svg">
<rect x="0.875" width="60" height="60" rx="11" fill="#213735"/>
<g clip-path="url(#clip0_4067_143)">
<path d="M48.8151 33.9517L48.8205 33.9499L42.91 21.0537L44.3434 20.3403L43.807 19.2663L42.4096 19.9623L42.2206 19.5501C42.1727 19.4457 42.0959 19.3572 41.9992 19.2952C41.9025 19.2331 41.7901 19.2002 41.6752 19.2002C41.5603 19.2002 41.4479 19.2331 41.3512 19.2952C41.2545 19.3572 41.1777 19.4457 41.1298 19.5501L40.9612 19.9185C39.9442 19.4461 38.8365 19.201 37.7152 19.2003H32.6753V18.0003H33.8753V16.8003H32.8439L33.2753 15.0741C33.6065 13.7487 32.8005 12.4056 31.4751 12.0744C30.1496 11.7432 28.8066 12.5491 28.4753 13.8746C28.3769 14.2683 28.3769 14.6803 28.4753 15.074L28.9067 16.8002H27.8753V18.0002H29.0753V19.2002H24.0384C22.9159 19.2011 21.8072 19.4468 20.7894 19.9202L20.6208 19.5518C20.5729 19.4474 20.4961 19.3589 20.3994 19.2969C20.3027 19.2349 20.1903 19.2019 20.0754 19.2019C19.9606 19.2019 19.8481 19.2349 19.7514 19.2969C19.6547 19.3589 19.5779 19.4474 19.53 19.5518L19.341 19.964L17.9436 19.265L17.4072 20.3402L18.8406 21.0566L12.9301 33.9499C12.8937 34.0283 12.875 34.1137 12.8755 34.2001C12.8781 36.5186 14.757 38.3974 17.0755 38.4001H23.0754C25.3938 38.3974 27.2727 36.5186 27.2753 34.2001C27.2738 34.1139 27.2534 34.0291 27.2153 33.9517L21.2886 21.0069C22.1501 20.607 23.0886 20.4 24.0384 20.4003H29.0753V42.3516L27.0269 44.4H24.8754C23.2194 44.402 21.8774 45.744 21.8754 47.4C21.8754 47.5591 21.9386 47.7117 22.0511 47.8242C22.1637 47.9368 22.3163 48 22.4754 48H39.2752C39.4343 48 39.587 47.9368 39.6995 47.8242C39.812 47.7117 39.8752 47.5591 39.8752 47.4C39.8733 45.744 38.5312 44.402 36.8752 44.4H34.7237L32.6753 42.3516V20.4003H37.7152C38.665 20.4 39.6035 20.607 40.465 21.0069L34.5299 33.9499C34.4934 34.0283 34.4748 34.1137 34.4753 34.2001C34.4779 36.5186 36.3568 38.3974 38.6752 38.4001H44.6752C46.9936 38.3974 48.8725 36.5186 48.8751 34.2001C48.8737 34.1139 48.8532 34.0291 48.8151 33.9517ZM23.0754 37.2001H17.0755C15.6503 37.1985 14.4224 36.1961 14.1355 34.8001H26.0154C25.7286 36.1961 24.5005 37.1985 23.0754 37.2001ZM25.7406 33.6001H14.4103L19.9218 21.5757C20.0225 21.6027 20.1284 21.6027 20.229 21.5757L25.7406 33.6001ZM29.8715 13.6899C30.3388 13.1355 31.167 13.065 31.7214 13.5322C31.7783 13.5802 31.8311 13.633 31.8791 13.6899C31.9988 13.8423 32.082 14.02 32.1223 14.2095C32.1625 14.3991 32.1588 14.5953 32.1113 14.7831L31.6067 16.8003H30.1439L29.6393 14.7831C29.5918 14.5953 29.5881 14.3991 29.6283 14.2095C29.6686 14.02 29.7518 13.8423 29.8715 13.6899ZM30.2753 19.2003V18.0003H31.4753V19.2003H30.2753ZM31.4753 20.4003V42H30.2753V20.4003H31.4753ZM36.8752 45.6C37.2474 45.6004 37.6103 45.716 37.9142 45.9308C38.2181 46.1457 38.4481 46.4493 38.5726 46.8H23.178C23.3025 46.4493 23.5325 46.1457 23.8364 45.9308C24.1403 45.716 24.5032 45.6004 24.8754 45.6H36.8752ZM33.0269 44.4H28.7237L29.9237 43.2H31.8269L33.0269 44.4ZM41.5204 21.5775C41.6195 21.6123 41.7281 21.6078 41.824 21.5649L47.3403 33.6001H36.0101L41.5204 21.5775ZM44.6752 37.2001H38.6752C37.2501 37.1985 36.0221 36.1961 35.7353 34.8001H47.6151C47.3283 36.1961 46.1003 37.1985 44.6752 37.2001Z" fill="white"/>
</g>
<defs>
<clipPath id="clip0_4067_143">
<rect width="36" height="36" fill="white" transform="translate(12.875 12)"/>
</clipPath>
</defs>
</svg>
