<svg width="61" height="60" viewBox="0 0 61 60" fill="none" xmlns="http://www.w3.org/2000/svg">
<rect x="0.666992" width="60" height="60" rx="11" fill="#213735"/>
<g clip-path="url(#clip0_4067_68)">
<path d="M20.1671 18.667H20.7505C21.0726 18.667 21.3338 18.4134 21.3338 18.1005C21.3338 18.0261 21.3187 17.9524 21.2894 17.8837C21.2602 17.8149 21.2172 17.7524 21.1631 17.6998C21.1089 17.6471 21.0446 17.6054 20.9738 17.5769C20.9031 17.5484 20.8272 17.5337 20.7506 17.5337H20.1671C20.0905 17.5337 20.0146 17.5484 19.9439 17.5769C19.8731 17.6054 19.8088 17.6472 19.7547 17.6998C19.7005 17.7524 19.6576 17.8149 19.6283 17.8837C19.599 17.9524 19.584 18.0261 19.584 18.1005C19.584 18.4133 19.8451 18.667 20.1671 18.667ZM23.0838 18.667H30.6672C30.9892 18.667 31.2504 18.4134 31.2504 18.1005C31.2504 18.0261 31.2354 17.9524 31.2061 17.8837C31.1768 17.8149 31.1338 17.7524 31.0797 17.6998C31.0255 17.6471 30.9612 17.6054 30.8905 17.5769C30.8197 17.5484 30.7438 17.5337 30.6672 17.5337H23.0838C22.9291 17.5337 22.7807 17.5934 22.6713 17.6997C22.5619 17.806 22.5004 17.9502 22.5004 18.1005C22.5004 18.4133 22.7618 18.667 23.0838 18.667Z" fill="white"/>
<path d="M42.8726 31.1336H41.5927C41.3273 31.1341 41.0633 31.1723 40.8093 31.2469C40.7895 31.2514 40.77 31.2568 40.751 31.2633C40.442 31.3673 40.1551 31.525 39.9041 31.7286C40.0305 30.4252 40.695 28.5326 43.2162 27.0865C43.3455 27.0083 43.4381 26.884 43.4743 26.7404C43.5105 26.5967 43.4875 26.4449 43.4101 26.3175C43.3327 26.1901 43.2071 26.0972 43.0601 26.0585C42.9131 26.0199 42.7564 26.0386 42.6234 26.1107C41.0573 26.9372 39.8357 28.2669 39.1678 29.8721C39.1381 29.7765 39.1046 29.682 39.0673 29.5889C38.7753 28.8424 38.2937 28.1796 37.6673 27.6624V18.1005C37.6673 17.1615 36.8839 16.4004 35.9175 16.4004H33.4769C33.3566 16.0701 33.1342 15.784 32.8402 15.5812C32.5461 15.3783 32.1948 15.2686 31.8341 15.2671H28.7091C28.2188 13.9091 26.8989 13 25.4174 13C23.9359 13 22.616 13.9092 22.1258 15.2671H19.0007C18.6401 15.2686 18.2888 15.3783 17.9948 15.5811C17.7008 15.784 17.4785 16.0701 17.3583 16.4004H14.9175C13.9509 16.4004 13.1675 17.1615 13.1675 18.1005V45.3C13.1675 46.2389 13.9509 47.0001 14.9175 47.0001H35.9175C36.1903 47.0004 36.4591 46.9372 36.7015 46.8159C37.2344 46.9374 37.7798 46.9992 38.3272 47.0001H40.5077C44.7311 47.0001 48.1674 43.4419 48.1674 39.0667V36.613C48.1674 33.5929 45.7923 31.1336 42.8726 31.1336ZM37.9766 29.9946C38.1283 30.4391 38.2375 30.8963 38.3027 31.3603C38.2444 31.3359 38.1923 31.3035 38.1336 31.2848C37.8465 31.1847 37.5438 31.1336 37.2388 31.1336H35.9623C35.8024 31.1336 35.6451 31.1442 35.4886 31.1585C35.4742 31.1546 35.4635 31.1455 35.4483 31.1427C33.5177 30.7671 33.5444 28.579 33.6173 27.796C33.9895 27.7542 34.3639 27.7339 34.7386 27.7352H34.7509C36.2109 27.748 37.5042 28.6545 37.9765 29.9969L37.9766 29.9946ZM32.0498 43.6002H16.6675V19.8003H17.3583C17.4785 20.1306 17.7008 20.4168 17.9948 20.6197C18.2888 20.8226 18.6402 20.9322 19.0008 20.9336H31.8341C32.1948 20.9322 32.5462 20.8225 32.8402 20.6197C33.1343 20.4168 33.3567 20.1306 33.4769 19.8003H34.1674V26.6087C32.6608 26.6608 32.561 27.0683 32.5073 27.3013C32.302 28.467 32.4063 30.5313 33.7952 31.621C31.8547 32.5659 30.64 34.5047 30.6675 36.6131V39.0668C30.6627 40.6766 31.1432 42.2526 32.0498 43.6002ZM36.5007 18.1005V26.968C36.1274 26.8157 35.7352 26.7114 35.3341 26.6575V19.8003C35.3341 19.1744 34.8118 18.667 34.1674 18.667H33.5842V17.5337H35.9175C36.2395 17.5337 36.5007 17.7874 36.5007 18.1005H36.5007ZM19.0007 16.4004H22.5592C22.5789 16.3976 22.5981 16.3936 22.6173 16.3885C22.6537 16.3849 22.6897 16.3778 22.7247 16.3675C22.7617 16.3568 22.7976 16.3424 22.8315 16.3245C22.9285 16.2738 23.008 16.1966 23.0601 16.1024C23.079 16.0695 23.0943 16.0347 23.1052 15.9986C23.1141 15.9815 23.1218 15.9639 23.1285 15.9459C23.3504 14.891 24.306 14.1333 25.4145 14.1333C26.5232 14.1333 27.4786 14.891 27.7005 15.9459C27.7075 15.9665 27.7157 15.9864 27.7251 16.0062C27.7342 16.0337 27.7451 16.0609 27.7579 16.0871C27.7775 16.1236 27.8014 16.1581 27.829 16.1895C27.8458 16.211 27.8639 16.231 27.8837 16.2497C27.9183 16.2787 27.9563 16.3036 27.997 16.3239C28.0789 16.3781 28.1767 16.405 28.2757 16.4004H31.8341C31.9107 16.4004 31.9866 16.4151 32.0574 16.4435C32.1282 16.472 32.1925 16.5138 32.2467 16.5664C32.3009 16.619 32.3438 16.6815 32.3732 16.7503C32.4025 16.8191 32.4176 16.8928 32.4175 16.9672V19.2338C32.4175 19.5466 32.1564 19.8003 31.8341 19.8003H19.0007C18.8461 19.8003 18.6977 19.7406 18.5884 19.6344C18.479 19.5281 18.4176 19.384 18.4175 19.2338V16.9672C18.4175 16.8169 18.4789 16.6728 18.5883 16.5665C18.6976 16.4602 18.846 16.4005 19.0007 16.4004ZM14.9176 45.8667C14.841 45.8667 14.7651 45.8521 14.6943 45.8236C14.6235 45.7951 14.5592 45.7534 14.505 45.7008C14.4508 45.6481 14.4078 45.5856 14.3785 45.5169C14.3492 45.4481 14.3341 45.3744 14.3341 45.3V18.1006C14.3341 18.0262 14.3492 17.9524 14.3785 17.8837C14.4078 17.8149 14.4508 17.7524 14.5049 17.6998C14.5591 17.6471 14.6235 17.6054 14.6942 17.5769C14.765 17.5484 14.8409 17.5337 14.9175 17.5338H17.2509V18.667H16.6674C16.0231 18.667 15.5008 19.1744 15.5008 19.8003V43.6002C15.5008 44.2261 16.0231 44.7335 16.6674 44.7335H32.9762C33.4033 45.1646 33.8815 45.545 34.4008 45.8668L14.9176 45.8667ZM47.0008 39.0668C47.0008 42.8158 44.0875 45.8668 40.5077 45.8668H38.3271C34.7473 45.8668 31.834 42.8171 31.834 39.0668V36.6131C31.834 34.2178 33.6862 32.267 35.9623 32.267H37.2486C37.4155 32.2685 37.5808 32.2973 37.738 32.352C38.0692 32.4808 38.3518 32.7052 38.5478 32.9948C38.7437 33.2845 38.8436 33.6255 38.834 33.9719V34.5335C38.8328 34.6087 38.847 34.6833 38.8758 34.753C38.9046 34.8228 38.9473 34.8863 39.0016 34.9398C39.0559 34.9934 39.1206 35.0359 39.192 35.0649C39.2633 35.094 39.3399 35.1089 39.4173 35.1089C39.4946 35.1089 39.5712 35.094 39.6426 35.0649C39.7139 35.0359 39.7786 34.9934 39.8329 34.9398C39.8872 34.8863 39.93 34.8228 39.9588 34.753C39.9876 34.6833 40.0018 34.6087 40.0006 34.5335V33.9704C39.9899 33.6244 40.0886 33.2834 40.2832 32.9934C40.4778 32.7034 40.7591 32.4781 41.0893 32.3479L41.1173 32.3401C41.2681 32.2929 41.4254 32.2679 41.5838 32.2659H42.872C45.1487 32.267 47.0007 34.2179 47.0007 36.6131L47.0008 39.0668Z" fill="white"/>
<path d="M35.1498 33.4294C35.0616 33.4571 33.0007 34.1556 33.0007 36.8002C32.9996 36.8753 33.0138 36.9499 33.0426 37.0197C33.0713 37.0894 33.1141 37.1529 33.1684 37.2065C33.2227 37.26 33.2874 37.3026 33.3587 37.3316C33.4301 37.3606 33.5067 37.3756 33.5841 37.3756C33.6614 37.3756 33.738 37.3606 33.8094 37.3316C33.8807 37.3026 33.9454 37.26 33.9997 37.2065C34.054 37.1529 34.0968 37.0894 34.1256 37.0197C34.1543 36.9499 34.1685 36.8753 34.1674 36.8002C34.1674 35.0018 35.4576 34.5258 35.5236 34.5029C35.5975 34.4802 35.666 34.4433 35.7251 34.3945C35.7841 34.3457 35.8326 34.2859 35.8676 34.2187C35.9027 34.1515 35.9235 34.0782 35.929 34.0031C35.9346 33.9279 35.9246 33.8525 35.8998 33.7811C35.8749 33.7098 35.8357 33.6439 35.7843 33.5875C35.733 33.531 35.6706 33.4851 35.6008 33.4523C35.5309 33.4196 35.4551 33.4007 35.3776 33.3968C35.3002 33.3928 35.2227 33.4039 35.1498 33.4294ZM20.7508 22.6338H19.0006C18.3563 22.6338 17.834 23.1411 17.834 23.7671V25.4672C17.834 26.0931 18.3563 26.6005 19.0006 26.6005H20.7507C21.395 26.6005 21.9174 26.0931 21.9174 25.4672V23.7671C21.9174 23.1412 21.3951 22.6338 20.7507 22.6338H20.7508ZM19.0007 25.4672V23.7671H20.7508V25.4672H19.0007ZM20.7508 27.7338H19.0006C18.3563 27.7338 17.834 28.2411 17.834 28.8671V30.5669C17.834 31.1928 18.3563 31.7004 19.0006 31.7004H20.7507C21.395 31.7004 21.9174 31.1928 21.9174 30.5669V28.8671C21.9174 28.2412 21.3951 27.7338 20.7507 27.7338H20.7508ZM19.0007 30.5669V28.8671H20.7508V30.5669H19.0007ZM20.7508 32.8338H19.0006C18.3563 32.8338 17.834 33.3411 17.834 33.9671V35.6669C17.834 36.2928 18.3563 36.8002 19.0006 36.8002H20.7507C21.395 36.8002 21.9174 36.2928 21.9174 35.6669V33.9671C21.9174 33.3411 21.3951 32.8338 20.7507 32.8338H20.7508ZM19.0006 35.6669V33.9671H20.7507V35.6669H19.0006ZM20.7508 37.9335H19.0006C18.3563 37.9335 17.834 38.4408 17.834 39.0668V40.7669C17.834 41.3928 18.3563 41.9002 19.0006 41.9002H20.7507C21.395 41.9002 21.9174 41.3928 21.9174 40.7669V39.0668C21.9174 38.4408 21.3951 37.9335 20.7507 37.9335H20.7508ZM19.0006 40.7668V39.0667H20.7507V40.7668H19.0006ZM23.6675 25.4672H31.8341C31.9114 25.4683 31.9882 25.4545 32.06 25.4266C32.1318 25.3986 32.1972 25.357 32.2523 25.3043C32.3074 25.2516 32.3512 25.1887 32.3811 25.1194C32.411 25.0501 32.4264 24.9757 32.4264 24.9005C32.4264 24.8254 32.411 24.751 32.3811 24.6817C32.3512 24.6123 32.3074 24.5495 32.2523 24.4968C32.1972 24.444 32.1318 24.4025 32.06 24.3745C31.9882 24.3466 31.9114 24.3327 31.8341 24.3339H23.6675C23.5128 24.3339 23.3644 24.3936 23.255 24.4999C23.1456 24.6061 23.0842 24.7503 23.0842 24.9005C23.0842 25.0508 23.1456 25.1949 23.255 25.3012C23.3644 25.4075 23.5128 25.4672 23.6675 25.4672ZM30.084 29.4336H23.6675C23.5901 29.4325 23.5133 29.4463 23.4415 29.4742C23.3697 29.5022 23.3043 29.5438 23.2492 29.5965C23.1941 29.6492 23.1503 29.7121 23.1205 29.7814C23.0906 29.8507 23.0752 29.9251 23.0752 30.0003C23.0752 30.0754 23.0906 30.1498 23.1205 30.2191C23.1503 30.2885 23.1941 30.3513 23.2492 30.404C23.3043 30.4568 23.3697 30.4983 23.4415 30.5263C23.5133 30.5542 23.5901 30.5681 23.6675 30.5669H30.084C30.2387 30.5669 30.3871 30.5072 30.4964 30.4009C30.6058 30.2947 30.6673 30.1505 30.6673 30.0003C30.6673 29.85 30.6058 29.7059 30.4964 29.5996C30.3871 29.4933 30.2387 29.4336 30.084 29.4336ZM28.9173 34.5336H23.6675C23.5904 34.5327 23.5138 34.5468 23.4423 34.5749C23.3708 34.603 23.3058 34.6446 23.2509 34.6973C23.1961 34.75 23.1525 34.8128 23.1228 34.8819C23.0931 34.9511 23.0778 35.0253 23.0778 35.1002C23.0778 35.1752 23.0931 35.2494 23.1228 35.3185C23.1525 35.3877 23.1961 35.4504 23.2509 35.5031C23.3058 35.5558 23.3708 35.5974 23.4423 35.6255C23.5138 35.6537 23.5904 35.6677 23.6675 35.6669H28.9173C29.072 35.6669 29.2204 35.6072 29.3298 35.5009C29.4392 35.3947 29.5006 35.2505 29.5006 35.1002C29.5006 34.9499 29.4392 34.8058 29.3298 34.6995C29.2204 34.5933 29.072 34.5336 28.9173 34.5336ZM28.9173 39.6336H23.6675C23.5904 39.6327 23.5138 39.6468 23.4423 39.6749C23.3708 39.703 23.3058 39.7446 23.2509 39.7973C23.1961 39.85 23.1525 39.9128 23.1228 39.9819C23.0931 40.0511 23.0778 40.1253 23.0778 40.2002C23.0778 40.2752 23.0931 40.3494 23.1228 40.4185C23.1525 40.4877 23.1961 40.5504 23.2509 40.6031C23.3058 40.6558 23.3708 40.6974 23.4423 40.7255C23.5138 40.7536 23.5904 40.7677 23.6675 40.7669H28.9173C29.072 40.7669 29.2204 40.7072 29.3298 40.6009C29.4392 40.4947 29.5006 40.3505 29.5006 40.2002C29.5006 40.0499 29.4392 39.9058 29.3298 39.7995C29.2204 39.6933 29.072 39.6336 28.9173 39.6336Z" fill="white"/>
</g>
<defs>
<clipPath id="clip0_4067_68">
<rect width="35" height="34" fill="white" transform="translate(13.167 13)"/>
</clipPath>
</defs>
</svg>
