<svg width="60" height="60" viewBox="0 0 60 60" fill="none" xmlns="http://www.w3.org/2000/svg">
<rect width="60" height="60" rx="11" fill="#213735"/>
<path d="M43.7136 15.485C43.7136 13.6669 42.2193 12.1875 40.3824 12.1875H19.7411C17.8361 12.1875 16.2861 13.7219 16.2861 15.6075V21.895C16.2986 21.9731 16.313 22.0481 16.3299 22.125C16.4624 22.4281 16.8255 22.6087 17.1405 22.4769L18.328 22.0081L19.5155 22.4769C19.663 22.535 19.8274 22.535 19.9749 22.4769L21.1593 22.0081L21.9436 22.3187V27.1812C21.9618 28.0087 23.1786 27.9987 23.1936 27.1812C23.2043 27.1669 23.1961 15.6075 23.1961 15.6075C23.1964 14.8143 22.9179 14.0462 22.4093 13.4375H40.3824C41.5299 13.4375 42.4636 14.3563 42.4636 15.485V46.2687L41.2686 45.7962C41.121 45.738 40.9568 45.738 40.8093 45.7962L38.9886 46.5162L37.1668 45.7962C37.019 45.738 36.8546 45.738 36.7068 45.7962L34.8899 46.5156L33.0705 45.7962C32.9229 45.7382 32.7588 45.7382 32.6111 45.7962L30.7886 46.5162L28.9655 45.7962C28.8181 45.7383 28.6542 45.7383 28.5068 45.7962L26.683 46.5162L24.8568 45.7962C24.7094 45.7382 24.5454 45.7382 24.398 45.7962L23.1936 46.2713V29.5438C23.1936 29.378 23.1278 29.219 23.0106 29.1018C22.8934 28.9846 22.7344 28.9188 22.5686 28.9188C22.4029 28.9188 22.2439 28.9846 22.1267 29.1018C22.0095 29.219 21.9436 29.378 21.9436 29.5438V47.1875C21.9393 47.625 22.4111 47.9113 22.8005 47.7688L24.6274 47.0487L26.4543 47.7688C26.6011 47.8269 26.7661 47.8269 26.913 47.7688L28.7361 47.0487L30.5593 47.7688C30.7061 47.8269 30.8711 47.8269 31.018 47.7688L32.8405 47.0487L34.6605 47.7688C34.808 47.8269 34.973 47.8269 35.1205 47.7688L36.9374 47.0487L38.7586 47.7688C38.9061 47.8269 39.0711 47.8269 39.2186 47.7688L41.0393 47.0487L42.8455 47.7638C43.2443 47.9413 43.7099 47.6131 43.7136 47.1875V15.485ZM21.9461 15.6075V20.9763C21.6686 20.8806 21.2268 20.6094 20.9299 20.755L19.7449 21.2238C19.2486 21.0663 18.4199 20.575 18.0986 20.755L17.5361 20.9769V15.6075C17.6274 12.7419 21.8543 12.7387 21.9461 15.6075Z" fill="white"/>
<path d="M38.0913 17.3887H27.5688C26.7507 17.4012 26.7451 18.6243 27.5688 18.6387H38.0913C38.9095 18.6262 38.9151 17.4024 38.0913 17.3887ZM25.7563 22.923C25.7563 23.0888 25.8222 23.2478 25.9394 23.365C26.0566 23.4822 26.2156 23.548 26.3813 23.548H32.8301C32.9959 23.548 33.1548 23.4822 33.272 23.365C33.3893 23.2478 33.4551 23.0888 33.4551 22.923C33.4551 22.7573 33.3893 22.5983 33.272 22.4811C33.1548 22.3639 32.9959 22.298 32.8301 22.298H26.3813C26.2156 22.298 26.0566 22.3639 25.9394 22.4811C25.8222 22.5983 25.7563 22.7573 25.7563 22.923ZM39.4013 22.298H35.8807C35.0601 22.3118 35.0588 23.5337 35.8807 23.548H39.4013C40.222 23.5343 40.2238 22.3118 39.4013 22.298ZM26.3813 27.1018H32.8301C33.6495 27.0887 33.6532 25.8662 32.8301 25.8518H26.3813C25.562 25.8655 25.5582 27.088 26.3813 27.1018ZM39.4013 25.8518H35.8807C35.0601 25.8655 35.0588 27.088 35.8807 27.1018H39.4013C40.222 27.088 40.2238 25.8662 39.4013 25.8518ZM26.3813 30.6562H32.8301C33.6495 30.6424 33.6532 29.4199 32.8301 29.4062H26.3813C25.562 29.4193 25.5582 30.6418 26.3813 30.6562ZM39.4013 29.4062H35.8807C35.0601 29.4199 35.0588 30.6418 35.8807 30.6562H39.4013C40.222 30.6424 40.2238 29.4199 39.4013 29.4062ZM26.3813 34.2099H32.8301C33.6495 34.1968 33.6532 32.9743 32.8301 32.9599H26.3813C25.562 32.9737 25.5582 34.1962 26.3813 34.2099ZM39.4013 32.9599H35.8807C35.0601 32.9737 35.0588 34.1962 35.8807 34.2099H39.4013C40.222 34.1968 40.2238 32.9743 39.4013 32.9599ZM26.3813 37.7637H32.8301C33.6495 37.7505 33.6532 36.528 32.8301 36.5137H26.3813C25.562 36.5274 25.5582 37.7499 26.3813 37.7637ZM39.4013 36.5137H35.8807C35.0601 36.5274 35.0588 37.7499 35.8807 37.7637H39.4013C40.222 37.7505 40.2238 36.528 39.4013 36.5137ZM39.4013 40.3093H33.3576C32.5376 40.3224 32.5345 41.5449 33.3576 41.5593H39.4013C40.2207 41.5455 40.2245 40.323 39.4013 40.3093Z" fill="white"/>
</svg>
