<svg width="60" height="60" viewBox="0 0 60 60" fill="none" xmlns="http://www.w3.org/2000/svg">
<rect width="60" height="60" rx="11" fill="#213735"/>
<g clip-path="url(#clip0_4067_49)">
<path d="M42.0443 13.0113C41.886 12.99 41.7249 13.0029 41.572 13.0492C41.4191 13.0956 41.2779 13.1742 41.1581 13.2799C41.0352 13.3869 40.9367 13.519 40.8692 13.6673C40.8017 13.8156 40.7666 13.9766 40.7665 14.1395V28.3685C40.1866 27.7873 39.494 27.3306 38.7314 27.0265C37.9687 26.7224 37.1519 26.5773 36.3312 26.6C33.8991 26.6 31.9679 28.2699 31.1332 29.1318C30.2985 28.2699 28.3673 26.6 25.9351 26.6C25.1144 26.5773 24.2976 26.7224 23.535 27.0265C22.7723 27.3306 22.0798 27.7873 21.4998 28.3685V26.0333C22.5515 26.0321 23.5597 25.6138 24.3034 24.8702C25.047 24.1265 25.4653 23.1183 25.4665 22.0666V14.7C25.4683 14.4775 25.4253 14.257 25.34 14.0516C25.2547 13.8462 25.1289 13.66 24.9701 13.5043C24.7636 13.2933 24.5053 13.1404 24.221 13.0608C23.9367 12.9813 23.6365 12.9779 23.3506 13.051C22.9763 13.1523 22.6467 13.3759 22.414 13.686C22.1814 13.9962 22.0591 14.3752 22.0665 14.7629V19.2333C22.0667 19.3088 22.0514 19.3836 22.0215 19.453C21.9917 19.5224 21.948 19.5849 21.8931 19.6368C21.8347 19.6943 21.7644 19.7385 21.6872 19.7661C21.61 19.7937 21.5277 19.8041 21.446 19.7966C21.2999 19.7721 21.1677 19.6954 21.0739 19.5807C20.9801 19.4661 20.9311 19.3213 20.936 19.1732V14.7C20.9378 14.4775 20.8948 14.257 20.8095 14.0516C20.7242 13.8462 20.5984 13.66 20.4396 13.5043C20.2331 13.2933 19.9748 13.1404 19.6905 13.0608C19.4062 12.9813 19.106 12.9779 18.8201 13.051C18.4453 13.1518 18.115 13.3751 17.8818 13.6853C17.6486 13.9955 17.5259 14.3748 17.5332 14.7629V19.2333C17.5333 19.3088 17.518 19.3836 17.4882 19.453C17.4584 19.5224 17.4147 19.5849 17.3598 19.6368C17.3014 19.6943 17.2311 19.7385 17.1539 19.7661C17.0766 19.7937 16.9943 19.8041 16.9127 19.7966C16.7657 19.7727 16.6326 19.696 16.5382 19.5809C16.4438 19.4658 16.3946 19.3203 16.3998 19.1715V14.7C16.4016 14.4776 16.3585 14.2572 16.2732 14.0519C16.1879 13.8466 16.0622 13.6605 15.9034 13.5049C15.6969 13.2939 15.4386 13.141 15.1543 13.0614C14.8701 12.9818 14.5699 12.9784 14.2839 13.0515C13.9097 13.1529 13.5802 13.3763 13.3476 13.6864C13.1149 13.9964 12.9925 14.3753 12.9998 14.7629V22.0666C13.001 23.1183 13.4193 24.1265 14.163 24.8702C14.9066 25.6138 15.9148 26.0321 16.9665 26.0333V44.7333C16.9665 45.032 17.0255 45.3277 17.1402 45.6035C17.2548 45.8793 17.4228 46.1297 17.6346 46.3403C17.8463 46.5509 18.0976 46.7176 18.374 46.8308C18.6504 46.9441 18.9464 47.0015 19.2451 47C19.2819 47 19.3187 47 19.3556 46.9971C19.9462 46.9524 20.4974 46.6834 20.8961 46.2453C21.2948 45.8072 21.5108 45.2332 21.4998 44.6409V38.2257C24.1722 42.759 29.1867 46.0253 30.4775 46.8158C30.6749 46.9371 30.902 47.0014 31.1337 47.0014C31.3654 47.0014 31.5926 46.9371 31.7899 46.8158C33.0802 46.0253 38.0941 42.759 40.7665 38.2257V44.7333C40.7665 45.032 40.8255 45.3277 40.9402 45.6035C41.0548 45.8793 41.2228 46.1297 41.4346 46.3403C41.6463 46.5509 41.8976 46.7176 42.174 46.8308C42.4504 46.9441 42.7464 47.0015 43.0451 47C43.0819 47 43.1187 47 43.1584 46.9971C43.7485 46.9517 44.299 46.6824 44.6971 46.2444C45.0952 45.8064 45.3108 45.2327 45.2998 44.6409V33.3269C45.7862 33.2013 46.2171 32.9177 46.5248 32.5207C46.8325 32.1236 46.9996 31.6356 46.9998 31.1333V18.6326C46.9975 17.2536 46.4933 15.9226 45.5814 14.8881C44.6695 13.8537 43.4122 13.1865 42.0443 13.0113ZM20.3665 25.4666V30.0164C19.9969 30.8101 19.8036 31.6744 19.7998 32.55C19.8068 33.657 19.9984 34.7552 20.3665 35.7992V44.6392C20.3747 44.9405 20.2695 45.2338 20.0717 45.4612C19.8738 45.6885 19.5978 45.8332 19.2983 45.8666C19.1427 45.8747 18.9871 45.851 18.8409 45.7969C18.6948 45.7428 18.5612 45.6595 18.4483 45.5521C18.3375 45.4466 18.2495 45.3195 18.1896 45.1787C18.1296 45.0379 18.0991 44.8863 18.0998 44.7333V25.4666C18.0998 25.3163 18.0401 25.1722 17.9338 25.0659C17.8276 24.9597 17.6834 24.9 17.5332 24.9H16.9665C16.215 24.9 15.4944 24.6014 14.963 24.0701C14.4317 23.5387 14.1332 22.8181 14.1332 22.0666V14.7629C14.1277 14.6289 14.166 14.4967 14.2424 14.3865C14.3188 14.2762 14.4291 14.1939 14.5565 14.152C14.6532 14.1252 14.7555 14.1255 14.8521 14.153C14.9486 14.1805 15.0357 14.2341 15.1039 14.3078C15.1559 14.3589 15.1971 14.42 15.225 14.4874C15.253 14.5547 15.2671 14.627 15.2665 14.7V19.171C15.2605 19.6044 15.4163 20.0245 15.7034 20.3493C15.9904 20.6741 16.3883 20.8803 16.8192 20.9276C17.0538 20.9472 17.29 20.9179 17.5128 20.8417C17.7356 20.7655 17.9402 20.644 18.1137 20.4849C18.2873 20.3257 18.426 20.1323 18.5211 19.9169C18.6162 19.7015 18.6657 19.4688 18.6665 19.2333V14.7629C18.661 14.6289 18.6994 14.4967 18.7757 14.3865C18.8521 14.2762 18.9624 14.1939 19.0898 14.152C19.1735 14.1312 19.2608 14.1297 19.3452 14.1474C19.4296 14.1651 19.5089 14.2017 19.5772 14.2544C19.6455 14.3071 19.701 14.3745 19.7395 14.4517C19.7781 14.5289 19.7987 14.6137 19.7998 14.7V19.171C19.7938 19.6044 19.9496 20.0245 20.2367 20.3493C20.5238 20.6741 20.9216 20.8803 21.3525 20.9276C21.5871 20.9472 21.8233 20.9179 22.0461 20.8417C22.2689 20.7655 22.4735 20.644 22.6471 20.4849C22.8206 20.3257 22.9593 20.1323 23.0544 19.9169C23.1496 19.7015 23.1991 19.4688 23.1998 19.2333V14.7629C23.1943 14.6289 23.2327 14.4967 23.3091 14.3865C23.3855 14.2762 23.4957 14.1939 23.6231 14.152C23.7199 14.1252 23.8221 14.1255 23.9187 14.153C24.0153 14.1805 24.1024 14.2341 24.1705 14.3078C24.2226 14.3589 24.2638 14.42 24.2917 14.4874C24.3197 14.5547 24.3337 14.627 24.3332 14.7V22.0666C24.3332 22.8181 24.0346 23.5387 23.5033 24.0701C22.9719 24.6014 22.2513 24.9 21.4998 24.9H20.9332C20.7829 24.9 20.6387 24.9597 20.5325 25.0659C20.4262 25.1722 20.3665 25.3163 20.3665 25.4666ZM31.1989 45.8485C31.1792 45.8602 31.1566 45.8663 31.1337 45.8663C31.1108 45.8663 31.0883 45.8602 31.0686 45.8485C29.3765 44.8132 20.9332 39.3029 20.9332 32.55C20.9311 31.9011 21.0604 31.2585 21.3135 30.6609C21.5665 30.0634 21.9379 29.5233 22.4053 29.0732C22.8727 28.6231 23.4264 28.2723 24.0331 28.0421C24.6398 27.8118 25.2868 27.7067 25.9351 27.7333C28.5888 27.7333 30.6691 30.3071 30.6895 30.3332C30.7446 30.3967 30.8128 30.4476 30.8893 30.4825C30.9659 30.5174 31.049 30.5355 31.1332 30.5355C31.2173 30.5355 31.3004 30.5174 31.377 30.4825C31.4535 30.4476 31.5217 30.3967 31.5769 30.3332C31.5973 30.3071 33.6775 27.7333 36.3312 27.7333C36.9795 27.7067 37.6266 27.8118 38.2332 28.0421C38.8399 28.2723 39.3936 28.6231 39.861 29.0732C40.3284 29.5233 40.6998 30.0634 40.9528 30.6609C41.2059 31.2585 41.3352 31.9011 41.3332 32.55C41.3332 39.3029 32.8898 44.8132 31.1989 45.8485ZM45.8665 31.1333C45.8665 31.4339 45.7471 31.7221 45.5345 31.9347C45.322 32.1472 45.0337 32.2666 44.7332 32.2666C44.5829 32.2666 44.4387 32.3263 44.3325 32.4326C44.2262 32.5389 44.1665 32.683 44.1665 32.8333V44.6409C44.1743 44.9419 44.0689 45.2348 43.8711 45.4618C43.6733 45.6888 43.3975 45.8332 43.0983 45.8666C42.9427 45.8747 42.7871 45.851 42.6409 45.7969C42.4948 45.7429 42.3612 45.6596 42.2483 45.5521C42.1375 45.4466 42.0495 45.3195 41.9896 45.1787C41.9296 45.0379 41.8991 44.8863 41.8998 44.7333V35.7992C42.268 34.7552 42.4595 33.657 42.4665 32.55C42.4628 31.6742 42.2695 30.8097 41.8998 30.0158V14.1333C42.9947 14.2734 44.0012 14.8074 44.7311 15.6354C45.4611 16.4634 45.8647 17.5288 45.8665 18.6326V31.1333Z" fill="white"/>
<path d="M37.9332 36.2334H35.6666C35.5733 36.2334 35.4815 36.2564 35.3992 36.3004C35.317 36.3443 35.2469 36.408 35.1951 36.4855L34.642 37.3151L33.354 34.3118C33.3108 34.2102 33.2389 34.1234 33.1471 34.0621C33.0553 34.0008 32.9476 33.9676 32.8372 33.9667H32.8332C32.7236 33.9667 32.6163 33.9985 32.5244 34.0582C32.4324 34.118 32.3598 34.2031 32.3153 34.3033L30.672 38.0059L29.4111 33.8041C29.3774 33.6911 29.3093 33.5915 29.2162 33.519C29.1232 33.4466 29.0099 33.405 28.8921 33.4C28.7738 33.3909 28.6559 33.4208 28.5562 33.4851C28.4565 33.5493 28.3806 33.6444 28.3401 33.7559L27.3496 36.2334H25.4666C25.3163 36.2334 25.1721 36.2931 25.0659 36.3993C24.9596 36.5056 24.8999 36.6498 24.8999 36.8C24.8999 36.9503 24.9596 37.0945 25.0659 37.2007C25.1721 37.307 25.3163 37.3667 25.4666 37.3667H27.7332C27.8466 37.3668 27.9573 37.3328 28.0511 37.2693C28.145 37.2057 28.2176 37.1155 28.2597 37.0103L28.7901 35.6837L30.0237 39.796C30.0569 39.9069 30.1234 40.005 30.214 40.0771C30.3047 40.1491 30.4153 40.1916 30.5309 40.1989L30.5666 40.2C30.6762 40.2001 30.7835 40.1683 30.8754 40.1085C30.9674 40.0488 31.04 39.9636 31.0845 39.8634L32.8236 35.95L34.0136 38.7233C34.0538 38.8171 34.1186 38.8983 34.2012 38.9584C34.2837 39.0184 34.3809 39.055 34.4826 39.0643C34.5842 39.0737 34.6865 39.0554 34.7786 39.0114C34.8707 38.9675 34.9492 38.8994 35.0058 38.8145L35.9697 37.3667H37.9332C38.0835 37.3667 38.2277 37.307 38.3339 37.2007C38.4402 37.0945 38.4999 36.9503 38.4999 36.8C38.4999 36.6498 38.4402 36.5056 38.3339 36.3993C38.2277 36.2931 38.0835 36.2334 37.9332 36.2334Z" fill="white"/>
</g>
<defs>
<clipPath id="clip0_4067_49">
<rect width="34" height="34" fill="white" transform="translate(13 13)"/>
</clipPath>
</defs>
</svg>
