<svg width="61" height="60" viewBox="0 0 61 60" fill="none" xmlns="http://www.w3.org/2000/svg">
<rect x="0.666992" width="60" height="60" rx="11" fill="#213735"/>
<path d="M49.8857 24.375H31.9482C31.5639 24.375 31.3076 24.625 31.3076 25V29.1875L29.7061 28.8125L27.9764 27.125C29.8982 25.375 30.0264 21.6875 30.0264 20.625C32.3967 20.625 34.0623 20 34.7029 18.875C34.9592 18.375 35.1514 17.5625 34.4467 16.5C33.742 15.5 32.8451 15 31.6279 15H29.3217C29.1295 13.875 28.3607 11.5 25.3498 10.8125C24.7092 10.6875 23.8123 10.625 23.6201 10.625C16.9576 10.625 15.9326 13.75 15.9326 15.625V18.75C15.9326 19.1875 16.1248 19.6875 16.5092 20.0625C16.1889 20.4375 15.9326 21.0625 15.9326 21.875C15.9326 23.4375 17.0217 24.125 17.9826 24.3125C18.3029 25.25 18.7514 25.9375 19.1998 26.5L16.8295 28.8125C16.317 29.375 16.9576 29.9375 16.9576 29.9375L14.2029 32.625C13.9467 32.9375 11.4482 35.4375 11.4482 37.5C11.4482 37.625 11.4482 37.6875 11.5123 37.75L14.7154 44C14.7795 44.1875 14.9717 44.25 15.0998 44.3125C15.1639 44.3125 15.7404 44.5 16.5732 44.5C16.5732 44.5625 16.5092 48.0625 16.5092 48.0625C16.5092 48.4375 16.7654 48.6875 17.1498 48.6875C17.5342 48.6875 17.7904 48.4375 17.7904 48.0625V46.3125C18.7514 47.4375 20.2889 48.6875 22.2748 48.6875C24.2607 48.6875 27.9123 47.4375 31.1154 46.3125C31.692 46.125 32.2045 45.9375 32.717 45.75C32.8451 45.6875 32.9732 45.6875 33.1654 45.625V48.125C33.1654 48.5 33.4217 48.75 33.8061 48.75C34.1904 48.75 34.4467 48.5 34.4467 48.125V45.3125C35.5998 45.0625 36.6889 44.9375 37.6498 45H42.1342C43.2232 45 44.6967 44.625 45.1451 43.5C45.2732 43.1875 45.3373 42.875 45.3373 42.5H49.8217C50.2061 42.5 50.4623 42.25 50.4623 41.875V25C50.5264 24.625 50.2701 24.375 49.8857 24.375ZM42.8389 25.625V29L41.1732 28.1875C41.1092 28.125 41.0451 28.125 40.917 28.125C40.7889 28.125 40.7248 28.125 40.6607 28.1875L38.9951 29V25.625H42.8389ZM24.1326 29.0625C24.0686 28.9375 23.7482 28.75 23.7482 28.75C24.517 28.75 25.1576 28.625 25.7982 28.4375L25.542 29.1875L24.9014 30.8125C24.9014 30.8125 24.1967 29.0625 24.1326 29.0625ZM27.2717 28.1875L28.617 29.5L27.9764 30.6875L26.8873 29.25L27.2717 28.1875ZM28.4248 16.25C27.8482 16.6875 27.3357 17.25 26.9514 17.75C25.8623 19.3125 24.9014 19.375 24.9014 19.375H21.5061C21.7623 19.125 22.0186 18.8125 22.2107 18.5C22.9795 17.375 24.3889 16.25 25.542 16.25H28.4248ZM33.3576 17.25C33.6779 17.6875 33.742 18.0625 33.5498 18.3125C33.2936 18.8125 32.2045 19.375 30.0264 19.375H29.9623C29.8342 18.25 29.642 17.4375 29.5139 17C30.2186 16.5625 30.9232 16.25 31.6279 16.25C32.3326 16.25 32.9092 16.5625 33.3576 17.25ZM17.2139 15.625C17.2139 13.375 19.0717 12.4375 21.1857 12.0625C20.0967 13.1875 19.7764 14.625 19.7764 15.625C19.7764 16 20.0326 16.25 20.417 16.25C20.7373 16.25 21.0576 16 21.0576 15.625C21.0576 15.25 21.1857 12.25 24.3248 11.9375C27.0795 12.1875 27.8482 14.0625 28.0404 15H25.542C23.8123 15 22.0826 16.375 21.1857 17.75C20.0967 19.3125 19.1357 19.375 19.1357 19.375H17.8545C17.342 19.375 17.2139 19.0625 17.2139 18.75V15.625ZM18.4951 23.125C18.3029 23.125 17.2139 23.0625 17.2139 21.875C17.2139 20.75 17.7264 20.625 17.8545 20.625H24.9014C25.0936 20.625 26.567 20.5625 27.9764 18.5C28.1045 18.3125 28.2326 18.125 28.4248 17.9375C28.5529 18.5 28.7451 19.4375 28.7451 20.6875C28.7451 20.75 29.0014 24.1875 27.1436 26.1875C26.3107 27.0625 25.0936 27.5 23.6201 27.5C23.5561 27.5 20.2248 27.4375 19.1357 23.5625C19.0076 23.3125 18.7514 23.125 18.4951 23.125ZM19.8404 27.6875L22.6592 29.5L20.9295 31.625L18.1107 29.375L19.8404 27.6875ZM12.7295 37.375C12.8576 36.0625 14.4592 34.1875 15.0998 33.5625L17.9186 30.8125L20.6092 33C20.7373 33.125 20.8654 33.125 20.9936 33.125H21.0576C21.2498 33.125 21.3779 33 21.5061 32.875L23.3639 30.5625L24.2607 32.6875C24.3889 32.9375 24.5811 33.0625 24.8373 33.0625C25.0936 33.0625 25.3498 32.9375 25.4139 32.6875L26.2467 30.625L27.4639 32.25C27.592 32.4375 27.7842 32.5 28.0404 32.5C28.2326 32.5 28.4248 32.375 28.5529 32.1875L29.5779 30.125L31.1795 30.5V40.4375C30.2186 40.75 29.0654 41.125 27.8482 41.5C26.8873 41.8125 25.9264 42.125 25.0295 42.4375C23.9404 42.8125 22.6592 42.375 22.0826 41.375L19.5842 37.1875C19.392 36.875 19.0076 36.8125 18.6873 37C18.367 37.1875 18.3029 37.5625 18.4951 37.875L20.2889 40.75C19.2639 43.6875 16.5092 43.4375 15.6764 43.25L12.7295 37.375ZM43.992 43C43.7998 43.5 42.9029 43.75 42.1982 43.75H37.7779C35.6639 43.625 33.4857 44.25 32.3967 44.625C31.8842 44.8125 31.3076 45 30.7951 45.1875C27.7842 46.1875 24.1326 47.5 22.3389 47.5C20.0967 47.5 18.4951 45.25 17.9826 44.4375C19.0717 44.1875 20.2889 43.625 21.1857 42.125C21.8904 43.1875 23.1076 43.8125 24.3889 43.8125C24.7732 43.8125 25.1576 43.75 25.542 43.625C26.3748 43.375 27.3357 43.0625 28.3607 42.6875C31.1795 41.75 34.6389 40.625 35.5357 40.625H40.0201C40.2123 40.625 40.5967 40.75 40.6607 41.25H38.9951C38.6107 41.25 38.3545 41.5 38.3545 41.875C38.3545 42.25 38.6107 42.5 38.9951 42.5C38.9951 42.5 43.8639 42.5625 44.1201 42.5625C44.1201 42.6875 44.0561 42.875 43.992 43ZM49.2451 41.25H41.942C41.8779 39.875 40.7889 39.375 40.0201 39.375H35.5357C34.9592 39.375 33.9982 39.625 32.5889 40V25.625H37.7139V30C37.7139 30.1875 37.842 30.4375 38.0342 30.5625C38.2264 30.6875 38.4826 30.6875 38.6748 30.5625L40.9811 29.4375L43.2873 30.5625C43.2873 30.625 43.3514 30.625 43.4795 30.625C43.6076 30.625 43.7357 30.625 43.7998 30.5625C43.992 30.4375 44.1201 30.25 44.1201 30V25.625H49.2451V41.25Z" fill="white"/>
<path d="M37.7139 36.875H35.1514C34.767 36.875 34.5107 37.125 34.5107 37.5C34.5107 37.875 34.767 38.125 35.1514 38.125H37.7139C38.0982 38.125 38.3545 37.875 38.3545 37.5C38.3545 37.125 38.0982 36.875 37.7139 36.875ZM35.1514 36.25H36.4326C36.817 36.25 37.0732 36 37.0732 35.625C37.0732 35.25 36.817 35 36.4326 35H35.1514C34.767 35 34.5107 35.25 34.5107 35.625C34.5107 36 34.767 36.25 35.1514 36.25Z" fill="white"/>
</svg>
