<svg width="25" height="25" viewBox="0 0 25 25" fill="none" xmlns="http://www.w3.org/2000/svg">
<g clip-path="url(#clip0_2002_40)">
<mask id="path-1-inside-1_2002_40" fill="white">
<path d="M2.20671 20.9503H1.06171C0.789711 20.9503 0.569214 20.7298 0.569214 20.4578V1.13883C0.569214 0.866829 0.789712 0.646332 1.06171 0.646332H17.3124C17.5844 0.646332 17.8049 0.866829 17.8049 1.13883V5.74877H18.9896C21.9637 5.74877 24.3747 8.15975 24.3747 11.1338V20.4581C24.3747 20.7301 24.1542 20.9506 23.8822 20.9506H22.5707M17.0064 20.9503H7.77043H17.0064Z"/>
</mask>
<path d="M17.8049 5.74877H16.8433V6.71031H17.8049V5.74877ZM2.20671 19.9888H1.06171V21.9118H2.20671V19.9888ZM1.53075 20.4578V1.13883H-0.392325V20.4578H1.53075ZM1.06171 1.60787H17.3124V-0.315207H1.06171V1.60787ZM16.8433 1.13883V5.74877H18.7664V1.13883H16.8433ZM17.8049 6.71031H18.9896V4.78723H17.8049V6.71031ZM18.9896 6.71031C21.4327 6.71031 23.4132 8.69079 23.4132 11.1338H25.3362C25.3362 7.62871 22.4948 4.78723 18.9896 4.78723V6.71031ZM23.4132 11.1338V20.4581H25.3362V11.1338H23.4132ZM23.8822 19.9891H22.5707V21.9121H23.8822V19.9891ZM17.0064 19.9888H7.77043V21.9118H17.0064V19.9888ZM17.3124 1.60787C17.0533 1.60787 16.8433 1.39787 16.8433 1.13883H18.7664C18.7664 0.335787 18.1154 -0.315207 17.3124 -0.315207V1.60787ZM23.4132 20.4581C23.4132 20.1991 23.6232 19.9891 23.8822 19.9891V21.9121C24.6852 21.9121 25.3362 21.2611 25.3362 20.4581H23.4132ZM1.53075 1.13883C1.53075 1.39787 1.32075 1.60787 1.06171 1.60787V-0.315207C0.258669 -0.315207 -0.392325 0.335786 -0.392325 1.13883H1.53075ZM1.06171 19.9888C1.32075 19.9888 1.53075 20.1988 1.53075 20.4578H-0.392325C-0.392325 21.2608 0.258668 21.9118 1.06171 21.9118V19.9888Z" fill="white" mask="url(#path-1-inside-1_2002_40)"/>
<path d="M7.26019 21.3307L7.26016 21.3307L7.25933 21.3358C7.16124 21.9382 6.82791 22.4769 6.33264 22.8335C5.83738 23.1901 5.22074 23.3354 4.61838 23.2374C4.0161 23.1393 3.47744 22.806 3.12086 22.3108C2.76427 21.8156 2.61897 21.199 2.71692 20.5967L2.71694 20.5967L2.71772 20.5915C2.76332 20.2907 2.86814 20.0018 3.02612 19.7417C3.1841 19.4816 3.3921 19.2554 3.63808 19.0763C3.88405 18.8971 4.16313 18.7685 4.45914 18.6979C4.75515 18.6273 5.06223 18.6161 5.36259 18.665C5.66296 18.7139 5.95064 18.8218 6.209 18.9826C6.46736 19.1435 6.69126 19.3539 6.86774 19.6018C7.04422 19.8497 7.16977 20.1302 7.23714 20.427C7.3045 20.7237 7.31234 21.0309 7.26019 21.3307ZM18.2653 8.25637H18.6131C20.4272 8.25637 21.8979 9.72713 21.8979 11.5408V12.3619H18.2655L18.2653 8.25637ZM22.03 20.4354C22.0987 20.7302 22.1086 21.0356 22.059 21.3343C21.9581 21.9338 21.624 22.4687 21.1296 22.8228C20.6351 23.1769 20.0206 23.3209 19.4203 23.2232C18.8199 23.1256 18.2827 22.7943 17.9259 22.3017C17.5693 21.8092 17.422 21.1955 17.5164 20.5948C17.5641 20.296 17.6702 20.0095 17.8288 19.7518C17.9875 19.4938 18.1955 19.2698 18.441 19.0924C18.6865 18.915 18.9645 18.7878 19.2592 18.7181C19.5539 18.6485 19.8595 18.6376 20.1584 18.6863C20.4573 18.7349 20.7437 18.842 21.0011 19.0016C21.2585 19.1611 21.4819 19.3699 21.6585 19.6159L22.0491 19.3356L21.6585 19.6159C21.835 19.862 21.9613 20.1404 22.03 20.4354Z" stroke="white" stroke-width="0.961538"/>
<mask id="path-4-inside-2_2002_40" fill="white">
<path d="M4.18379 23.6302C2.97464 23.8308 1.76397 24.0906 0.568848 24.4207L4.18379 23.6302ZM18.4063 23.3951C15.2015 23.0256 10.9984 22.7948 6.62434 23.2576L18.4063 23.3951ZM24.3195 24.4271C24.3195 24.4271 22.8073 24.0546 20.3637 23.697L24.3195 24.4271Z"/>
</mask>
<path d="M4.02641 22.6816C2.78748 22.8872 1.54363 23.1539 0.312791 23.4939L0.824905 25.3476C1.98431 25.0272 3.1618 24.7744 4.34116 24.5788L4.02641 22.6816ZM18.5165 22.4399C15.2669 22.0653 10.9891 21.8289 6.52316 22.3014L6.72551 24.2138C11.0078 23.7607 15.1361 23.986 18.2962 24.3503L18.5165 22.4399ZM24.3195 24.4271C24.5495 23.4935 24.5494 23.4935 24.5493 23.4935C24.5493 23.4935 24.5492 23.4935 24.5491 23.4934C24.549 23.4934 24.5488 23.4934 24.5486 23.4933C24.5483 23.4932 24.5478 23.4931 24.5473 23.493C24.5461 23.4927 24.5447 23.4923 24.5428 23.4919C24.5391 23.491 24.534 23.4897 24.5274 23.4882C24.5142 23.485 24.4952 23.4804 24.4706 23.4746C24.4213 23.463 24.3495 23.4463 24.2562 23.4253C24.0696 23.3833 23.7972 23.324 23.448 23.2536C22.7497 23.1128 21.7437 22.9272 20.5029 22.7456L20.2244 24.6484C21.4272 24.8244 22.3991 25.0039 23.0678 25.1387C23.4021 25.2061 23.6605 25.2624 23.8338 25.3014C23.9205 25.3209 23.9858 25.3361 24.0288 25.3463C24.0503 25.3513 24.0662 25.3551 24.0764 25.3576C24.0814 25.3588 24.0851 25.3597 24.0873 25.3602C24.0884 25.3605 24.0891 25.3607 24.0895 25.3608C24.0896 25.3608 24.0897 25.3608 24.0897 25.3608C24.0897 25.3608 24.0897 25.3608 24.0896 25.3608C24.0896 25.3608 24.0896 25.3608 24.0896 25.3608C24.0895 25.3608 24.0894 25.3608 24.3195 24.4271Z" fill="white" mask="url(#path-4-inside-2_2002_40)"/>
</g>
<defs>
<clipPath id="clip0_2002_40">
<rect width="25" height="25" fill="white"/>
</clipPath>
</defs>
</svg>
