<svg width="119" height="25" viewBox="0 0 119 25" fill="none" xmlns="http://www.w3.org/2000/svg">
<path d="M12.2149 25C5.54624 25 0 19.4595 0 12.5C0 5.67567 5.41419 0 12.2149 0C16.1435 0 19.676 1.72297 21.9869 4.96622L17.5961 8.00676C16.5397 6.28378 14.4929 4.96622 12.2149 4.96622C8.22033 4.96622 5.51323 8.41216 5.51323 12.5C5.51323 16.5878 8.22033 20.0338 12.2149 20.0338C14.4929 20.0338 16.4407 18.8851 17.6291 16.9595L22.185 19.7297C19.9071 22.973 16.1435 25 12.2149 25Z" fill="white"/>
<path d="M37.7923 20.473H29.2088L27.9873 24.3243H22.6722L30.4633 0.675675H36.5048L44.3289 24.3243H38.9808L37.7923 20.473ZM30.6944 15.7432H36.3067L33.5006 6.82432L30.6944 15.7432Z" fill="white"/>
<path d="M63.5548 19.5946V24.3243H47.1472V0.675675H52.4293V19.5946H63.5548Z" fill="white"/>
<path d="M64.3877 12.5C64.3877 5.64189 70.0329 0 76.6026 0C83.3043 0 88.8175 5.81081 88.8175 12.5C88.8175 19.3243 83.1392 25 76.6026 25C69.7358 25 64.3877 18.9865 64.3877 12.5ZM69.9009 12.5C70.0659 16.4189 72.641 20.0338 76.6026 20.0338C80.5972 20.0338 83.3043 16.1824 83.3043 12.5C83.3043 8.58108 80.3991 4.96622 76.6026 4.96622C72.608 4.96622 69.9009 8.78378 69.9009 12.5Z" fill="white"/>
<path d="M109.959 8.85135C109.959 12.3311 107.813 15.3378 104.776 16.5203L111.313 24.3243H104.842L98.7344 17.027H97.579V24.3243H92.2968V0.675675H101.97C106.361 0.675675 109.959 4.29054 109.959 8.85135ZM101.111 5.40541H97.579V12.2973H101.111C102.96 12.2973 104.479 10.7432 104.479 8.85135C104.479 6.95946 102.96 5.40541 101.111 5.40541Z" fill="white"/>
<path d="M113.784 0.675675H119V24.3243H113.784V0.675675Z" fill="white"/>
</svg>
