<svg width="38" height="24" viewBox="0 0 38 24" fill="none" xmlns="http://www.w3.org/2000/svg">
<g clip-path="url(#clip0_2008_411)">
<path opacity="0.07" d="M35 0H3C1.3 0 0 1.3 0 3V21C0 22.7 1.4 24 3 24H35C36.7 24 38 22.7 38 21V3C38 1.3 36.6 0 35 0Z" fill="black"/>
<path d="M35 1C36.1 1 37 1.9 37 3V21C37 22.1 36.1 23 35 23H3C1.9 23 1 22.1 1 21V3C1 1.9 1.9 1 3 1H35Z" fill="white"/>
<path fill-rule="evenodd" clip-rule="evenodd" d="M20.0501 15.2959C20.0501 15.2959 22.5801 14.5249 24.3321 14.5199C27.2281 14.5129 29.1891 15.6699 29.1891 15.6699V10.0599C29.1891 10.0599 27.2191 9.03988 24.7361 8.96988C22.2551 8.90188 20.0491 9.98188 20.0491 9.98188V15.2949L20.0501 15.2959Z" fill="#5A78FF"/>
<path fill-rule="evenodd" clip-rule="evenodd" d="M17.3081 9.18986L19.3901 14.1469V9.39586C19.3901 9.39586 21.0361 8.51386 22.8751 8.26586C24.7151 8.01686 27.0561 8.34586 27.0561 8.34586L25.9231 5.63886C25.9231 5.63886 23.4621 5.47986 21.2331 6.43286C19.0051 7.38486 17.3081 9.18986 17.3081 9.18986Z" fill="#5A78FF"/>
<path d="M21.4279 5.67582L20.6079 3.68582C20.4252 3.23984 20.0731 2.88453 19.6288 2.69781C19.1845 2.51109 18.6843 2.50822 18.2379 2.68982L12.5749 5.02382C12.1303 5.2095 11.7775 5.56388 11.5938 6.00927C11.4101 6.45466 11.4105 6.95472 11.5949 7.39982L17.0549 20.6468C17.2377 21.0926 17.5899 21.4477 18.0342 21.6342C18.4785 21.8207 18.9786 21.8235 19.4249 21.6418L25.0869 19.3078C25.3073 19.2162 25.5075 19.0821 25.676 18.913C25.8445 18.744 25.9781 18.5435 26.0691 18.3228C26.1601 18.1022 26.2068 17.8658 26.2064 17.6271C26.206 17.3884 26.1586 17.1522 26.0669 16.9318L25.3899 15.2898C25.3899 15.2898 24.9279 15.2628 24.7139 15.2568C24.4879 15.2508 24.0699 15.2558 24.0699 15.2558L24.9499 17.3918C24.9806 17.4653 24.9965 17.5441 24.9967 17.6237C24.997 17.7033 24.9815 17.7822 24.9512 17.8559C24.9209 17.9295 24.8765 17.9965 24.8203 18.0529C24.7641 18.1094 24.6974 18.1542 24.6239 18.1848L18.9609 20.5178C18.8122 20.5786 18.6455 20.5779 18.4974 20.5158C18.3493 20.4537 18.2318 20.3354 18.1709 20.1868L12.7109 6.93982C12.6493 6.79143 12.6491 6.62463 12.7104 6.47611C12.7717 6.32759 12.8895 6.20951 13.0379 6.14782L18.6999 3.81382C18.8487 3.7531 19.0155 3.75397 19.1636 3.81623C19.3118 3.87849 19.4291 3.99704 19.4899 4.14582L20.3199 6.15682C20.3199 6.15682 20.7029 5.96982 20.9099 5.88682C21.1159 5.80482 21.4279 5.67582 21.4279 5.67582Z" fill="#5A78FF"/>
</g>
<defs>
<clipPath id="clip0_2008_411">
<rect width="38" height="24" fill="white"/>
</clipPath>
</defs>
</svg>
