<svg width="38" height="24" viewBox="0 0 38 24" fill="none" xmlns="http://www.w3.org/2000/svg">
<g clip-path="url(#clip0_2008_401)">
<path opacity="0.07" d="M35 0H3C1.3 0 0 1.3 0 3V21C0 22.7 1.4 24 3 24H35C36.7 24 38 22.7 38 21V3C38 1.3 36.6 0 35 0Z" fill="black"/>
<path d="M35 1C36.1 1 37 1.9 37 3V21C37 22.1 36.1 23 35 23H3C1.9 23 1 22.1 1 21V3C1 1.9 1.9 1 3 1H35Z" fill="white"/>
<path d="M26.1219 16.0821C24.2949 16.0821 23.6899 14.6921 23.6899 13.3031V11.1731C23.6899 9.78307 24.2949 8.39307 26.1219 8.39307C27.9389 8.39307 28.5449 9.78307 28.5449 11.1731V13.3031C28.5449 14.6931 27.9389 16.0821 26.1219 16.0821ZM27.8899 11.1721C27.8899 9.99907 27.4429 9.02107 26.1219 9.02107C24.7919 9.02107 24.3449 9.99907 24.3449 11.1721V13.3031C24.3449 14.4771 24.7919 15.4541 26.1219 15.4541C27.4419 15.4541 27.8899 14.4771 27.8899 13.3031V11.1731V11.1721ZM31.7399 12.9221H30.0419V15.7421C30.0419 15.9381 29.9039 16.0821 29.7149 16.0821C29.6709 16.0818 29.6274 16.0728 29.5869 16.0554C29.5464 16.0381 29.5099 16.0129 29.4793 15.9812C29.4487 15.9495 29.4248 15.912 29.4089 15.871C29.3931 15.8299 29.3856 15.7861 29.3869 15.7421V8.82507C29.3869 8.64007 29.5369 8.48507 29.7149 8.48507H31.6209C33.3189 8.48507 33.9239 9.50507 33.9239 10.4621V10.9871C33.9239 12.1191 33.1099 12.9221 31.7399 12.9221ZM33.2699 10.4721C33.2699 9.86407 32.9019 9.12407 31.5919 9.12407H30.0419V12.2941H31.7209C32.7829 12.2941 33.2689 11.6971 33.2689 10.9761L33.2699 10.4721Z" fill="#6E6E6E"/>
<path d="M11.955 20.4559C13.0653 20.4559 14.1648 20.2372 15.1906 19.8123C16.2164 19.3874 17.1485 18.7646 17.9336 17.9795C18.7187 17.1944 19.3415 16.2623 19.7664 15.2365C20.1913 14.2107 20.41 13.1112 20.41 12.0009C20.41 10.8906 20.1913 9.79112 19.7664 8.76531C19.3415 7.7395 18.7187 6.80743 17.9336 6.02231C17.1485 5.23719 16.2164 4.6144 15.1906 4.1895C14.1648 3.76459 13.0653 3.5459 11.955 3.5459C9.71259 3.5459 7.56203 4.43669 5.97641 6.02231C4.39079 7.60793 3.5 9.75849 3.5 12.0009C3.5 14.2433 4.39079 16.3939 5.97641 17.9795C7.56203 19.5651 9.71259 20.4559 11.955 20.4559Z" fill="#FF6A10"/>
<path d="M18.5901 12.0002C18.59 11.3264 18.4079 10.6651 18.0631 10.0862C17.7183 9.50725 17.2236 9.03217 16.6312 8.71108C16.0388 8.39 15.3707 8.23483 14.6975 8.26195C14.0242 8.28907 13.3707 8.49749 12.8061 8.86519V5.36719H11.1061V8.86519C10.5414 8.49755 9.88788 8.28922 9.21459 8.2622C8.5413 8.23517 7.8732 8.39045 7.28084 8.71165C6.68848 9.03284 6.19384 9.50802 5.84915 10.087C5.50446 10.666 5.32251 11.3274 5.32251 12.0012C5.32251 12.675 5.50446 13.3364 5.84915 13.9154C6.19384 14.4944 6.68848 14.9695 7.28084 15.2907C7.8732 15.6119 8.5413 15.7672 9.21459 15.7402C9.88788 15.7132 10.5414 15.5048 11.1061 15.1372V18.6352H12.8061V15.1372C13.3709 15.505 14.0245 15.7134 14.698 15.7404C15.3714 15.7675 16.0396 15.6121 16.6321 15.2908C17.2246 14.9695 17.7192 14.4941 18.0639 13.9149C18.4085 13.3357 18.5903 12.6742 18.5901 12.0002ZM11.1061 12.0002C11.1061 12.2682 11.0533 12.5336 10.9507 12.7812C10.8482 13.0289 10.6978 13.2539 10.5083 13.4434C10.3188 13.6329 10.0938 13.7833 9.84615 13.8858C9.59853 13.9884 9.33312 14.0412 9.06509 14.0412C8.79707 14.0412 8.53166 13.9884 8.28404 13.8858C8.03641 13.7833 7.81141 13.6329 7.62189 13.4434C7.43237 13.2539 7.28203 13.0289 7.17946 12.7812C7.07689 12.5336 7.02409 12.2682 7.02409 12.0002C7.02409 11.4589 7.23913 10.9397 7.62189 10.557C8.00465 10.1742 8.52379 9.95919 9.06509 9.95919C9.6064 9.95919 10.1255 10.1742 10.5083 10.557C10.8911 10.9397 11.1061 11.4589 11.1061 12.0002ZM16.8891 12.0002C16.8891 12.5414 16.6741 13.0604 16.2914 13.443C15.9088 13.8257 15.3898 14.0407 14.8486 14.0407C14.3074 14.0407 13.7884 13.8257 13.4057 13.443C13.0231 13.0604 12.8081 12.5414 12.8081 12.0002C12.8081 11.459 13.0231 10.94 13.4057 10.5573C13.7884 10.1747 14.3074 9.95969 14.8486 9.95969C15.3898 9.95969 15.9088 10.1747 16.2914 10.5573C16.6741 10.94 16.8891 11.459 16.8891 12.0002Z" fill="white"/>
</g>
<defs>
<clipPath id="clip0_2008_401">
<rect width="38" height="24" fill="white"/>
</clipPath>
</defs>
</svg>
