<svg width="38" height="24" viewBox="0 0 38 24" fill="none" xmlns="http://www.w3.org/2000/svg">
<g clip-path="url(#clip0_2008_417)">
<path opacity="0.07" d="M35 0H3C1.3 0 0 1.3 0 3V21C0 22.7 1.4 24 3 24H35C36.7 24 38 22.7 38 21V3C38 1.3 36.6 0 35 0Z" fill="black"/>
<path d="M35 1C36.1 1 37 1.9 37 3V21C37 22.1 36.1 23 35 23H3C1.9 23 1 22.1 1 21V3C1 1.9 1.9 1 3 1H35Z" fill="white"/>
<path d="M19.58 17.2501L17 8.31014H19L21.16 15.8201L23.32 8.31014H25.32L22.7001 17.2501H19.58ZM8.00005 15.5201C8.52417 15.5201 9.03652 15.3647 9.47231 15.0735C9.9081 14.7823 10.2478 14.3685 10.4483 13.8842C10.6489 13.4 10.7014 12.8672 10.5991 12.3531C10.4969 11.8391 10.2445 11.3669 9.87388 10.9963C9.50327 10.6257 9.03109 10.3733 8.51704 10.2711C8.00299 10.1688 7.47016 10.2213 6.98594 10.4219C6.50171 10.6224 6.08784 10.9621 5.79665 11.3979C5.50547 11.8337 5.35005 12.346 5.35005 12.8701C5.35005 13.573 5.62924 14.247 6.12622 14.744C6.62319 15.2409 7.29722 15.5201 8.00005 15.5201ZM8.15005 8.32013C8.73689 8.32509 9.31678 8.44766 9.85544 8.6806C10.3941 8.91354 10.8806 9.25211 11.2861 9.6763C11.6917 10.1005 12.0081 10.6017 12.2166 11.1503C12.4251 11.6988 12.5215 12.2837 12.5 12.8701C12.5201 13.4563 12.4227 14.0405 12.2137 14.5884C12.0047 15.1364 11.6883 15.6371 11.283 16.061C10.8777 16.4849 10.3918 16.8235 9.85377 17.0569C9.31574 17.2903 8.73649 17.4138 8.15005 17.4201C7.59274 17.4257 7.04094 17.3096 6.53315 17.0799C6.02535 16.8502 5.57382 16.5124 5.21005 16.0901V19.6801H3.30005V8.32013H5.00005V10.0001C5.35359 9.48502 5.82658 9.06317 6.37861 8.77061C6.93064 8.47805 7.5453 8.32349 8.17005 8.32013H8.15005ZM14 17.2501V8.31014H15.95V17.2501H14ZM30.1901 10.1901C29.6564 10.1842 29.133 10.3371 28.6864 10.6295C28.2399 10.9219 27.8905 11.3405 27.6826 11.8321C27.4747 12.3236 27.4177 12.8659 27.5189 13.39C27.6201 13.914 27.8749 14.3961 28.2508 14.7749C28.6268 15.1538 29.107 15.4122 29.6303 15.5173C30.1535 15.6224 30.6963 15.5695 31.1894 15.3652C31.6825 15.161 32.1037 14.8147 32.3994 14.3704C32.6951 13.9261 32.852 13.4039 32.85 12.8701C32.8514 12.5187 32.7833 12.1704 32.6497 11.8453C32.5161 11.5202 32.3196 11.2247 32.0716 10.9757C31.8235 10.7267 31.5287 10.5291 31.2041 10.3943C30.8795 10.2595 30.5315 10.1901 30.18 10.1901H30.1901ZM30.1901 17.4401C29.2841 17.45 28.3957 17.1905 27.6376 16.6944C26.8795 16.1983 26.286 15.4881 25.9324 14.6539C25.5789 13.8198 25.4812 12.8994 25.6518 12.0096C25.8225 11.1199 26.2538 10.3009 26.8908 9.65675C27.5279 9.01262 28.3421 8.57237 29.2299 8.39195C30.1178 8.21152 31.0392 8.29906 31.8772 8.64343C32.7151 8.98781 33.4319 9.57348 33.9363 10.3261C34.4407 11.0786 34.71 11.9642 34.71 12.8701C34.7127 13.4677 34.5976 14.0598 34.3714 14.6129C34.1451 15.1659 33.8122 15.669 33.3915 16.0933C32.9709 16.5177 32.4708 16.8551 31.9197 17.0861C31.3687 17.3172 30.7776 17.4375 30.18 17.4401H30.1901ZM16.33 5.73013C16.3201 5.99803 16.2313 6.25702 16.0746 6.47456C15.918 6.6921 15.7005 6.8585 15.4496 6.95283C15.1986 7.04717 14.9254 7.06524 14.6643 7.00478C14.4031 6.94432 14.1656 6.80802 13.9817 6.61301C13.7977 6.418 13.6755 6.17298 13.6304 5.90872C13.5853 5.64447 13.6192 5.37278 13.7281 5.12778C13.8369 4.88278 14.0157 4.6754 14.242 4.53171C14.4683 4.38801 14.732 4.31441 15 4.32014C15.3617 4.33572 15.703 4.49176 15.9514 4.75507C16.1997 5.01839 16.3356 5.3682 16.33 5.73013Z" fill="#25D0C5"/>
</g>
<defs>
<clipPath id="clip0_2008_417">
<rect width="38" height="24" fill="white"/>
</clipPath>
</defs>
</svg>
