<svg width="38" height="24" viewBox="0 0 38 24" fill="none" xmlns="http://www.w3.org/2000/svg">
<g clip-path="url(#clip0_2008_407)">
<path opacity="0.07" d="M35 0H3C1.3 0 0 1.3 0 3V21C0 22.7 1.4 24 3 24H35C36.7 24 38 22.7 38 21V3C38 1.3 36.6 0 35 0Z" fill="black"/>
<path d="M35 1C36.1 1 37 1.9 37 3V21C37 22.1 36.1 23 35 23H3C1.9 23 1 22.1 1 21V3C1 1.9 1.9 1 3 1H35Z" fill="white"/>
<path d="M33 9.89014C32.331 9.94798 31.7047 10.2426 31.2336 10.7211C30.7624 11.1995 30.4775 11.8304 30.43 12.5001C30.3997 12.8824 30.4487 13.2669 30.5742 13.6293C30.6996 13.9917 30.8986 14.3243 31.1588 14.606C31.419 14.8878 31.7346 15.1127 32.0859 15.2666C32.4372 15.4204 32.8165 15.5 33.2 15.5001C33.5354 15.5006 33.8657 15.4188 34.1621 15.2619C34.4585 15.105 34.7119 14.8778 34.9 14.6001V15.4301H36V12.7501C36.0174 12.3578 35.9505 11.9664 35.8039 11.602C35.6574 11.2377 35.4345 10.909 35.1502 10.6381C34.866 10.3671 34.527 10.1602 34.1562 10.0311C33.7853 9.90213 33.391 9.85405 33 9.89014ZM34.83 12.7701C34.821 12.9907 34.7659 13.207 34.6682 13.4049C34.5705 13.6029 34.4324 13.7782 34.2628 13.9195C34.0932 14.0608 33.8959 14.165 33.6836 14.2254C33.4712 14.2858 33.2486 14.3011 33.03 14.2701C32.6753 14.2228 32.3461 14.0601 32.0931 13.8071C31.8401 13.554 31.6773 13.2248 31.63 12.8701C31.5953 12.6515 31.6061 12.4281 31.6616 12.2138C31.7171 11.9996 31.8163 11.799 31.9528 11.6248C32.0893 11.4506 32.2603 11.3063 32.455 11.2012C32.6498 11.096 32.8642 11.0321 33.0847 11.0135C33.3053 10.9949 33.5273 11.0219 33.737 11.093C33.9466 11.1641 34.1393 11.2776 34.3031 11.4265C34.4669 11.5754 34.5982 11.7565 34.6889 11.9584C34.7795 12.1603 34.8276 12.3788 34.83 12.6001V12.7701ZM27.12 9.89014C26.6142 9.90312 26.1212 10.0524 25.6932 10.3223C25.2652 10.5922 24.918 10.9727 24.6883 11.4236C24.4586 11.8744 24.3549 12.3789 24.3881 12.8839C24.4214 13.3888 24.5904 13.8753 24.8772 14.2922C25.1641 14.709 25.5581 15.0407 26.0178 15.2521C26.4776 15.4636 26.9858 15.5469 27.489 15.4935C27.9922 15.44 28.4716 15.2517 28.8766 14.9483C29.2816 14.645 29.5972 14.238 29.79 13.7701L28.72 13.4501C28.5903 13.7236 28.3879 13.9562 28.1348 14.1223C27.8818 14.2885 27.588 14.3818 27.2854 14.3921C26.9829 14.4025 26.6834 14.3294 26.4196 14.1809C26.1559 14.0324 25.9381 13.8142 25.79 13.5501L30 12.4001C29.9207 11.7029 29.5852 11.0599 29.0585 10.5961C28.5319 10.1323 27.8517 9.88068 27.15 9.89014H27.12ZM25.57 12.5701C25.5759 12.2347 25.6845 11.9091 25.8812 11.6373C26.0779 11.3655 26.3532 11.1606 26.67 11.0501C27.0193 10.9026 27.4114 10.8927 27.7677 11.0226C28.1239 11.1525 28.4177 11.4124 28.59 11.7501L25.57 12.5701ZM17.91 11.0001V9.87014C17.5951 9.84488 17.2795 9.90945 16.9998 10.0564C16.7202 10.2033 16.4879 10.4265 16.33 10.7001V10.0701H15.13V15.4001H16.36V12.7701C16.3333 12.5498 16.3533 12.3263 16.4188 12.1142C16.4842 11.902 16.5936 11.7061 16.7399 11.5391C16.8861 11.3721 17.0659 11.2378 17.2675 11.1449C17.4691 11.0521 17.688 11.0027 17.91 11.0001ZM6.91 13.2301L3.25 9.00014H2V15.4001H3.28V11.0901L7 15.4001H8.13V9.00014H6.9V13.2801L6.91 13.2301ZM23.64 8.39014H22.49V10.4901C22.2375 10.2729 21.9428 10.1102 21.6245 10.0121C21.3061 9.91402 20.971 9.88271 20.64 9.92014C19.9063 9.95542 19.216 10.2784 18.7188 10.8192C18.2216 11.3599 17.9576 12.0748 17.9839 12.8089C18.0102 13.543 18.3248 14.2372 18.8594 14.7409C19.394 15.2447 20.1056 15.5175 20.84 15.5001C21.1666 15.512 21.4913 15.4455 21.787 15.3064C22.0828 15.1672 22.3409 14.9593 22.54 14.7001V15.4001H23.62V8.40014L23.64 8.39014ZM22.47 12.7701C22.4596 12.9912 22.4033 13.2076 22.3045 13.4056C22.2057 13.6035 22.0667 13.7787 21.8963 13.9199C21.7259 14.0611 21.528 14.1652 21.3151 14.2255C21.1022 14.2858 20.8791 14.301 20.66 14.2701C20.306 14.2212 19.9776 14.058 19.7249 13.8052C19.4722 13.5525 19.3089 13.2242 19.26 12.8701C19.2423 12.6594 19.2662 12.4472 19.3305 12.2457C19.3948 12.0441 19.4981 11.8573 19.6346 11.6957C19.7711 11.5341 19.9381 11.401 20.1261 11.304C20.314 11.2069 20.5192 11.1479 20.73 11.1301C20.9408 11.1124 21.153 11.1364 21.3545 11.2006C21.556 11.2649 21.7429 11.3683 21.9044 11.5048C22.066 11.6413 22.1991 11.8083 22.2962 11.9962C22.3932 12.1841 22.4523 12.3894 22.47 12.6001V12.7701ZM11.63 9.89014C11.0738 9.88816 10.5295 10.0513 10.0661 10.3588C9.60272 10.6664 9.241 11.1046 9.02678 11.6178C8.81256 12.1311 8.75549 12.6964 8.86278 13.2422C8.97007 13.7879 9.23691 14.2896 9.62949 14.6835C10.0221 15.0775 10.5227 15.3462 11.0681 15.4554C11.6135 15.5646 12.179 15.5096 12.693 15.2972C13.2071 15.0848 13.6465 14.7246 13.9557 14.2623C14.2649 13.8 14.43 13.2563 14.43 12.7001C14.4313 12.3316 14.3599 11.9664 14.2197 11.6256C14.0796 11.2847 13.8736 10.9748 13.6134 10.7138C13.3533 10.4527 13.0442 10.2456 12.7038 10.1042C12.3635 9.96289 11.9985 9.89013 11.63 9.89014ZM11.63 14.3001C11.3107 14.3021 10.9981 14.2091 10.7318 14.033C10.4655 13.8568 10.2576 13.6055 10.1345 13.3109C10.0114 13.0163 9.97868 12.6918 10.0405 12.3785C10.1023 12.0653 10.2558 11.7775 10.4816 11.5517C10.7074 11.326 10.9951 11.1724 11.3084 11.1106C11.6216 11.0488 11.9462 11.0815 12.2408 11.2046C12.5353 11.3277 12.7867 11.5356 12.9628 11.8019C13.139 12.0682 13.232 12.3809 13.23 12.7001C13.23 13.1245 13.0614 13.5314 12.7614 13.8315C12.4613 14.1316 12.0543 14.3001 11.63 14.3001Z" fill="#0000A0"/>
</g>
<defs>
<clipPath id="clip0_2008_407">
<rect width="38" height="24" fill="white"/>
</clipPath>
</defs>
</svg>
