<svg width="16" height="16" viewBox="0 0 16 16" fill="none" xmlns="http://www.w3.org/2000/svg">
<path fill-rule="evenodd" clip-rule="evenodd" d="M8.28424 1.85198C8.18787 1.82152 8.08355 1.82867 7.99224 1.87198C7.94715 1.8931 7.90714 1.92368 7.87493 1.96164C7.84272 1.9996 7.81907 2.04406 7.80557 2.09198L7.48824 3.31465C7.37725 3.74191 7.21613 4.15456 7.00824 4.54398C6.68491 5.14865 6.19624 5.61332 5.74291 6.00398L4.78424 6.83065C4.71099 6.89398 4.65377 6.97375 4.61727 7.06343C4.58077 7.15312 4.56603 7.25017 4.57424 7.34665L5.11557 13.6086C5.12874 13.7607 5.19839 13.9024 5.31081 14.0057C5.42322 14.109 5.57025 14.1664 5.72291 14.1666H8.82224C10.9129 14.1666 12.6749 12.712 13.0129 10.758L13.4829 8.03798C13.4982 7.95033 13.4941 7.8604 13.4709 7.77449C13.4478 7.68858 13.4062 7.60876 13.3489 7.54062C13.2917 7.47248 13.2203 7.41767 13.1397 7.38002C13.0591 7.34237 12.9712 7.32279 12.8822 7.32265H9.42824C8.77691 7.32265 8.28157 6.73865 8.38691 6.09598L8.82891 3.39998C8.89005 3.03075 8.87279 2.65277 8.77824 2.29065C8.75144 2.1949 8.70102 2.10742 8.63159 2.03624C8.56216 1.96507 8.47596 1.91248 8.38091 1.88332L8.28424 1.85198ZM7.55757 0.971316C7.88004 0.816483 8.24955 0.790959 8.59024 0.899983L8.68691 0.931316C9.20491 1.09798 9.60891 1.51132 9.74624 2.03932C9.87491 2.53665 9.89891 3.05532 9.81557 3.56198L9.37357 6.25798C9.37221 6.26593 9.37261 6.27409 9.37473 6.28187C9.37685 6.28965 9.38065 6.29688 9.38586 6.30304C9.39106 6.3092 9.39756 6.31415 9.40488 6.31753C9.4122 6.32092 9.42017 6.32267 9.42824 6.32265H12.8816C13.8816 6.32265 14.6389 7.22398 14.4682 8.20865L13.9982 10.9286C13.5729 13.3873 11.3729 15.1666 8.82224 15.1666H5.72291C5.31997 15.1663 4.93179 15.015 4.63498 14.7425C4.33816 14.4699 4.15426 14.0961 4.11957 13.6946L3.57757 7.43265C3.55565 7.17835 3.59437 6.92248 3.69056 6.68606C3.78675 6.44963 3.93767 6.23941 4.13091 6.07265L5.09091 5.24598C5.52757 4.86998 5.89491 4.50532 6.12557 4.07265C6.29702 3.7532 6.42952 3.41433 6.52024 3.06332L6.83757 1.84132C6.88703 1.65264 6.97709 1.47703 7.10145 1.32676C7.22581 1.1765 7.38147 1.05519 7.55757 0.971316ZM1.97091 6.32332C2.09975 6.31768 2.22578 6.36205 2.32268 6.44715C2.41958 6.53225 2.47985 6.65149 2.49091 6.77998L3.13757 14.2706C3.14853 14.3822 3.13663 14.4948 3.1026 14.6016C3.06857 14.7084 3.01313 14.8071 2.93967 14.8918C2.8662 14.9764 2.77625 15.0452 2.67531 15.0939C2.57437 15.1427 2.46455 15.1703 2.35257 15.1751C2.2406 15.18 2.1288 15.162 2.02402 15.1222C1.91924 15.0824 1.82368 15.0216 1.74316 14.9437C1.66264 14.8657 1.59887 14.7721 1.55572 14.6687C1.51258 14.5652 1.49098 14.4541 1.49224 14.342V6.82265C1.49212 6.69366 1.54186 6.56961 1.63106 6.47643C1.72027 6.38325 1.84203 6.32882 1.97091 6.32332Z" fill="white"/>
</svg>
