<svg width="61" height="60" viewBox="0 0 61 60" fill="none" xmlns="http://www.w3.org/2000/svg">
<rect x="0.333252" width="60" height="60" rx="11" fill="#213735"/>
<path d="M18.9999 38.5817V45.4808C18.9999 46.5913 19.8999 47.5 20.9999 47.5H39.6666C40.7666 47.5 41.6666 46.5913 41.6666 45.4808V38.5817C43.5999 37.9558 50.3333 35.2096 50.3333 27.3077C50.3333 22.4817 46.4466 18.5577 41.6666 18.5577C41.4866 18.5577 41.2999 18.5577 41.1133 18.5779C38.8133 14.8221 34.7266 12.5 30.3333 12.5C25.9399 12.5 21.8533 14.8154 19.5533 18.5779C19.3666 18.5644 19.1799 18.5577 18.9999 18.5577C14.2199 18.5577 10.3333 22.4817 10.3333 27.3077C10.3333 35.2096 17.0666 37.9558 18.9999 38.5817ZM40.3333 45.4808C40.3333 45.851 40.0333 46.1538 39.6666 46.1538H20.9999C20.6333 46.1538 20.3333 45.851 20.3333 45.4808V38.75H40.3333V45.4808ZM18.8466 19.9106C18.7533 20.1125 18.6599 20.3144 18.5866 20.5096C18.4533 20.8529 18.6199 21.2433 18.9599 21.3846C19.0399 21.4183 19.1199 21.4317 19.2066 21.4317C19.4733 21.4317 19.7266 21.2702 19.8266 21.0077C20.0066 20.5567 20.2266 20.0856 20.4933 19.6212C22.5066 16.0606 26.2799 13.8462 30.3333 13.8462C34.3866 13.8462 38.1599 16.0606 40.1733 19.6144C40.4333 20.0788 40.6599 20.5433 40.8399 21.001C40.9059 21.1665 41.034 21.299 41.1964 21.3696C41.3587 21.4402 41.5421 21.4432 41.7066 21.3779C42.0466 21.2433 42.2133 20.8529 42.0799 20.5029C41.9999 20.301 41.9133 20.1058 41.8199 19.9038C45.7933 19.9846 48.9999 23.2692 48.9999 27.301C48.9999 35.0885 41.7666 37.1817 40.9199 37.3971H38.1599C41.1133 35.1827 41.6333 32.2683 41.6599 32.1202C41.7199 31.7567 41.4733 31.4067 41.1133 31.3462C41.027 31.3314 40.9387 31.334 40.8535 31.3538C40.7682 31.3736 40.6876 31.4101 40.6164 31.4614C40.5452 31.5127 40.4847 31.5777 40.4384 31.6526C40.3921 31.7275 40.3609 31.8109 40.3466 31.8981C40.3466 31.9317 39.6999 35.526 35.5199 37.3904H30.9999V32.6788C30.9999 32.3087 30.6999 32.0058 30.3333 32.0058C29.9666 32.0058 29.6666 32.3087 29.6666 32.6788V37.3904H25.1466C20.9999 35.5394 20.3466 32.0394 20.3199 31.8913C20.3061 31.804 20.2752 31.7203 20.2291 31.645C20.1829 31.5698 20.1224 31.5047 20.0511 31.4533C19.9797 31.4019 19.899 31.3654 19.8135 31.3459C19.728 31.3263 19.6396 31.3241 19.5533 31.3394C19.1933 31.4 18.9466 31.75 19.0066 32.1135C19.0333 32.2615 19.5533 35.1692 22.5066 37.3904H19.7466C18.9666 37.1817 11.6666 35.0212 11.6666 27.2942C11.6666 23.2625 14.8733 19.9779 18.8466 19.8971V19.9106Z" fill="white"/>
</svg>
