<svg width="61" height="60" viewBox="0 0 61 60" fill="none" xmlns="http://www.w3.org/2000/svg">
<rect x="0.125" width="60" height="60" rx="11" fill="#213735"/>
<g clip-path="url(#clip0_4067_168)">
<path d="M42.8804 39.7841H43.7785C45.6238 39.7841 47.1251 38.2829 47.1251 36.4376C47.1251 34.5922 45.6239 33.091 43.7785 33.091H43.1953V31.3339C43.1953 31.0588 42.9724 30.8359 42.6972 30.8359H40.9328C41.2567 29.6333 41.4205 28.3933 41.42 27.1479C41.42 23.5098 40.0415 20.0529 37.5386 17.4139C37.4936 17.3664 37.4397 17.3283 37.3799 17.3017C37.3202 17.2751 37.2558 17.2605 37.1904 17.2587C37.125 17.257 37.0599 17.2682 36.9989 17.2916C36.9378 17.3151 36.8819 17.3503 36.8345 17.3953C36.787 17.4403 36.7489 17.4942 36.7223 17.554C36.6957 17.6137 36.6811 17.6781 36.6794 17.7435C36.6776 17.8089 36.6888 17.874 36.7122 17.9351C36.7357 17.9961 36.7709 18.052 36.8159 18.0994C39.1425 20.5525 40.4239 23.766 40.4239 27.1479C40.4239 28.4025 40.2468 29.6412 39.8983 30.8359H37.6118C38.0339 29.6555 38.2483 28.4184 38.2483 27.1479C38.2483 21.0959 33.3246 16.1722 27.2726 16.1722C21.2206 16.1722 16.2968 21.0959 16.2968 27.1479C16.2968 28.3675 16.496 29.5665 16.8889 30.7116C16.9782 30.9719 17.2618 31.1106 17.5216 31.0211C17.5834 30.9999 17.6405 30.9667 17.6895 30.9234C17.7386 30.8801 17.7786 30.8276 17.8073 30.7689C17.8361 30.7101 17.853 30.6463 17.857 30.581C17.8611 30.5157 17.8522 30.4503 17.831 30.3884C17.4739 29.3475 17.2929 28.2573 17.2929 27.1479C17.2929 21.6451 21.7697 17.1683 27.2725 17.1683C32.7753 17.1683 37.2521 21.6451 37.2521 27.1479C37.2521 28.4241 37.0148 29.6631 36.5473 30.8359H27.4041C27.3387 30.8359 27.2739 30.8488 27.2135 30.8738C27.153 30.8989 27.0981 30.9355 27.0519 30.9818C27.0056 31.028 26.9689 31.083 26.9439 31.1434C26.9189 31.2038 26.906 31.2686 26.906 31.334V37.1203C23.4919 36.9937 20.3436 35.1073 18.6249 32.1321C18.5923 32.0752 18.5488 32.0254 18.4969 31.9854C18.4449 31.9454 18.3857 31.9161 18.3224 31.8991C18.2591 31.882 18.1931 31.8776 18.1281 31.8862C18.0632 31.8947 18.0005 31.916 17.9438 31.9487C17.8871 31.9815 17.8373 32.0252 17.7975 32.0772C17.7577 32.1292 17.7285 32.1886 17.7116 32.2519C17.6948 32.3152 17.6906 32.3813 17.6993 32.4462C17.708 32.5111 17.7295 32.5737 17.7624 32.6304C19.6663 35.9261 23.1202 37.9941 26.9137 38.1177C26.9494 38.8685 27.1189 39.6069 27.4142 40.298C27.3669 40.2986 27.3193 40.2993 27.2725 40.2993C20.0208 40.2993 14.1211 34.3996 14.1211 27.1479C14.1211 19.8962 20.0208 13.9966 27.2725 13.9966C30.2514 13.9966 33.0606 14.9677 35.3963 16.805C35.4477 16.8454 35.5066 16.8753 35.5696 16.893C35.6325 16.9107 35.6984 16.9158 35.7633 16.908C35.8282 16.9003 35.891 16.8798 35.948 16.8478C36.0051 16.8158 36.0552 16.7728 36.0957 16.7214C36.1361 16.67 36.166 16.6112 36.1837 16.5482C36.2014 16.4852 36.2065 16.4194 36.1988 16.3545C36.191 16.2895 36.1705 16.2267 36.1385 16.1697C36.1065 16.1127 36.0635 16.0625 36.0121 16.0221C33.4991 14.0454 30.477 13.0005 27.2725 13.0005C19.4715 13.0005 13.125 19.3471 13.125 27.1479C13.125 34.9488 19.4715 41.2954 27.2725 41.2954C27.4899 41.2954 27.7135 41.2896 27.9398 41.2789C28.4358 42.0367 29.0867 42.6808 29.8497 43.1687H26.4679C26.3079 43.1682 26.1505 43.2087 26.0106 43.2863C25.8707 43.3639 25.753 43.476 25.6687 43.612C25.5836 43.7474 25.5346 43.9023 25.5263 44.0621C25.5181 44.2218 25.5509 44.381 25.6216 44.5245L25.6412 44.5646C26.3646 46.0436 27.8959 46.9994 29.5424 46.9994H34.363C34.6381 46.9994 34.861 46.7765 34.861 46.5014C34.861 46.2263 34.6381 46.0033 34.363 46.0033H29.5424C28.2876 46.0033 27.1197 45.2831 26.5548 44.1648H43.5464C42.9814 45.2831 41.8135 46.0033 40.5587 46.0033H36.3544C36.0793 46.0033 35.8563 46.2263 35.8563 46.5014C35.8563 46.7765 36.0793 46.9994 36.3544 46.9994H40.5587C42.2053 46.9994 43.7366 46.0436 44.4604 44.5638L44.4795 44.5247C44.5503 44.3812 44.5831 44.222 44.5749 44.0622C44.5666 43.9025 44.5176 43.7475 44.4325 43.612C44.3483 43.476 44.2306 43.3639 44.0907 43.2862C43.9507 43.2086 43.7933 43.1682 43.6333 43.1687H40.2515C41.4781 42.3851 42.4188 41.1922 42.8804 39.7841ZM43.7785 34.0872C45.0745 34.0872 46.1289 35.1416 46.1289 36.4376C46.1289 37.7337 45.0745 38.7881 43.7785 38.7881H43.1196C43.17 38.4639 43.1953 38.1363 43.1952 37.8083V34.0873L43.7785 34.0872ZM36.8387 43.1687H33.2626C30.3068 43.1687 27.9021 40.764 27.9021 37.8082V31.832H42.1991V37.8082C42.1991 40.764 39.7944 43.1687 36.8387 43.1687Z" fill="white"/>
<path d="M27.2726 19.912C27.5478 19.912 27.7707 19.6891 27.7707 19.414V18.71C27.7707 18.4348 27.5478 18.2119 27.2726 18.2119C26.9975 18.2119 26.7746 18.4348 26.7746 18.71V19.4141C26.7746 19.4795 26.7875 19.5442 26.8125 19.6047C26.8375 19.6651 26.8742 19.72 26.9205 19.7662C26.9667 19.8125 27.0216 19.8491 27.0821 19.8742C27.1425 19.8992 27.2072 19.9121 27.2726 19.912ZM33.0937 22.0315L33.5915 21.5336C33.6378 21.4874 33.6745 21.4325 33.6995 21.372C33.7245 21.3116 33.7374 21.2468 33.7374 21.1814C33.7374 21.116 33.7245 21.0513 33.6995 20.9908C33.6745 20.9304 33.6378 20.8755 33.5915 20.8293C33.5453 20.783 33.4904 20.7463 33.43 20.7213C33.3695 20.6963 33.3048 20.6834 33.2394 20.6834C33.1739 20.6834 33.1092 20.6963 33.0487 20.7213C32.9883 20.7463 32.9334 20.783 32.8872 20.8293L32.3893 21.3271C32.2959 21.4205 32.2434 21.5472 32.2434 21.6793C32.2434 21.8114 32.2959 21.9381 32.3893 22.0315C32.4827 22.1249 32.6094 22.1773 32.7415 22.1773C32.8736 22.1773 33.0003 22.1249 33.0937 22.0315ZM35.7108 27.6462C35.9859 27.6462 36.2089 27.4233 36.2089 27.1481C36.2089 26.873 35.9859 26.6501 35.7108 26.6501H35.0067C34.7316 26.6501 34.5087 26.873 34.5087 27.1481C34.5087 27.4233 34.7316 27.6462 35.0067 27.6462H35.7108ZM20.9538 33.4671C21.0472 33.5605 21.1739 33.6129 21.3059 33.6129C21.438 33.6129 21.5647 33.5605 21.6581 33.4671L22.156 32.9692C22.2494 32.8758 22.3019 32.7492 22.3019 32.6171C22.3019 32.485 22.2494 32.3583 22.156 32.2649C22.0626 32.1715 21.9359 32.119 21.8038 32.119C21.6717 32.119 21.545 32.1715 21.4516 32.2649L20.9538 32.7627C20.9075 32.809 20.8708 32.8639 20.8458 32.9243C20.8208 32.9847 20.8079 33.0495 20.8079 33.1149C20.8079 33.1803 20.8208 33.2451 20.8458 33.3055C20.8708 33.3659 20.9075 33.4208 20.9538 33.4671ZM19.5385 27.6462C19.8136 27.6462 20.0366 27.4233 20.0366 27.1481C20.0366 26.873 19.8136 26.6501 19.5385 26.6501H18.8345C18.5594 26.6501 18.3364 26.873 18.3364 27.1481C18.3364 27.4233 18.5594 27.6462 18.8345 27.6462H19.5385ZM21.4516 22.0315C21.5489 22.1287 21.6764 22.1773 21.8038 22.1773C21.9313 22.1773 22.0588 22.1287 22.156 22.0315C22.2023 21.9852 22.239 21.9303 22.264 21.8699C22.2891 21.8095 22.3019 21.7447 22.3019 21.6793C22.3019 21.6139 22.2891 21.5491 22.264 21.4887C22.239 21.4283 22.2023 21.3733 22.156 21.3271L21.6582 20.8293C21.5648 20.7358 21.4381 20.6834 21.306 20.6834C21.1739 20.6834 21.0472 20.7358 20.9538 20.8293C20.8604 20.9227 20.8079 21.0493 20.8079 21.1814C20.8079 21.3135 20.8604 21.4402 20.9538 21.5336L21.4516 22.0315ZM26.7746 27.3529C26.7746 27.4548 26.8058 27.5542 26.864 27.6378C26.9222 27.7214 27.0047 27.7851 27.1002 27.8203C27.1958 27.8556 27.2998 27.8607 27.3984 27.8349C27.497 27.8092 27.5852 27.7539 27.6514 27.6764L29.4512 25.5694C29.5369 25.4689 29.5793 25.3385 29.5689 25.2069C29.5586 25.0752 29.4963 24.953 29.3959 24.8672C29.2955 24.7815 29.1651 24.7391 29.0334 24.7495C28.9017 24.7599 28.7796 24.8221 28.6937 24.9225L27.7708 26.003V22.6397C27.7708 22.3646 27.5478 22.1416 27.2727 22.1416C26.9976 22.1416 26.7747 22.3646 26.7747 22.6397V27.3529H26.7746Z" fill="white"/>
</g>
<defs>
<clipPath id="clip0_4067_168">
<rect width="34" height="34" fill="white" transform="translate(13.125 13)"/>
</clipPath>
</defs>
</svg>
