<svg width="61" height="60" viewBox="0 0 61 60" fill="none" xmlns="http://www.w3.org/2000/svg">
<rect x="0.333252" width="60" height="60" rx="11" fill="#213735"/>
<g clip-path="url(#clip0_4067_94)">
<path d="M36.6719 37.6742C38.0449 36.1416 38.8035 34.156 38.8021 32.0983H39.5022C40.6623 32.0983 41.6024 31.1579 41.6024 29.9981V27.8979C41.6024 27.1247 40.9758 26.4978 40.2023 26.4978H39.5022V20.0482C41.3456 19.5197 42.5191 17.7156 42.2549 15.8163C41.9907 13.9175 40.3698 12.5021 38.4521 12.4966H35.5917C34.735 10.3831 32.6821 9 30.4014 9C28.121 9 26.068 10.3831 25.2114 12.4966H22.3507C20.4334 12.5021 18.8124 13.9175 18.5481 15.8164C18.2838 17.7156 19.4574 19.5198 21.3006 20.0482V26.4978H20.6005C19.8273 26.4978 19.2004 27.1247 19.2004 27.8979V29.9981C19.2004 31.1579 20.1407 32.0983 21.3006 32.0983H22.0006C21.9972 34.1572 22.7561 36.1445 24.1312 37.6769C18.6774 39.4667 14.9927 44.5603 15 50.2999C15 50.4856 15.0738 50.6637 15.2051 50.795C15.3363 50.9262 15.5144 51 15.7001 51H45.1027C45.4896 51 45.8028 50.6865 45.8028 50.2999C45.7713 44.5723 42.1018 39.4982 36.6719 37.6742ZM40.2023 29.9981C40.2023 30.3847 39.8891 30.6982 39.5022 30.6982H38.8021V27.8979H40.2023V29.9981ZM19.9004 16.3469C19.9004 14.9936 20.9977 13.8967 22.3507 13.8967H25.707C25.8577 13.8966 26.0043 13.848 26.1252 13.758C26.246 13.6679 26.3345 13.5414 26.3777 13.397C26.9083 11.6167 28.5453 10.3964 30.4031 10.3964C32.2606 10.3964 33.8976 11.6167 34.4284 13.397C34.4714 13.5409 34.5595 13.6671 34.6797 13.7571C34.7999 13.8471 34.9459 13.896 35.096 13.8967H38.4521C39.8053 13.8967 40.9023 14.9936 40.9023 16.3469C40.9023 17.7002 39.8053 18.7971 38.4521 18.7971H22.3507C20.9977 18.7971 19.9004 17.7002 19.9004 16.3469ZM22.7007 20.1972H38.1021V26.4978H22.7007V20.1972ZM21.3006 30.6982C21.1149 30.6982 20.9368 30.6244 20.8056 30.4931C20.6743 30.3619 20.6005 30.1838 20.6005 29.9981V27.8979H22.0006V30.6982H21.3006ZM23.4008 31.3982V27.8979H37.402V32.0983C37.4049 33.1263 37.1799 34.1422 36.7433 35.073C36.3067 36.0037 35.6693 36.8261 34.8769 37.4811C32.2834 39.636 28.5223 39.636 25.9289 37.4811L25.9197 37.477C25.7558 37.343 25.5991 37.2006 25.45 37.0504C24.7979 36.4015 24.281 35.6297 23.9293 34.7796C23.5775 33.9296 23.3979 33.0182 23.4008 32.0983V31.3982ZM19.8836 41.8845C21.3832 40.384 23.2574 39.3126 25.3112 38.7817C28.3183 41.0716 32.4841 41.0716 35.4908 38.7817C35.6953 38.8344 35.8943 38.9007 36.0945 38.9639L33.5797 41.8992H26.201C26.0153 41.8992 25.8373 41.9729 25.706 42.1042C25.5747 42.2355 25.501 42.4136 25.501 42.5992V49.5999H16.4205C16.5855 46.6894 17.8187 43.9421 19.8836 41.8845ZM33.9017 49.5999V46.0996H36.702V49.5999H33.9017ZM38.1021 49.5999V45.3995C38.1021 45.0129 37.7889 44.6994 37.402 44.6994H33.2016C33.016 44.6994 32.8379 44.7732 32.7066 44.9045C32.5753 45.0358 32.5016 45.2138 32.5016 45.3995V49.5999H26.9011V43.2993H33.9017C34.0027 43.2991 34.1025 43.2772 34.1942 43.2349C34.286 43.1926 34.3675 43.131 34.4332 43.0543L37.4785 39.4999C41.4506 41.354 44.0967 45.2255 44.3817 49.5999H38.1021Z" fill="white"/>
</g>
<defs>
<clipPath id="clip0_4067_94">
<rect width="41.9163" height="42" fill="white" transform="translate(9.37524 9)"/>
</clipPath>
</defs>
</svg>
